<?xml version="1.0" standalone="no"?>
<!DOCTYPE svg PUBLIC "-//W3C//DTD SVG 1.1//EN" "http://www.w3.org/Graphics/SVG/1.1/DTD/svg11.dtd" >
<svg>
<metadata>
Created by FontForge 20090622 at Mon Mar 13 13:35:36 2017
 By deploy user
Copyright (c) 2009 by The Font Bureau, Inc.. All rights reserved.
</metadata>
<defs>
<font id="MillerBanner-Semibold" horiz-adv-x="500" >
  <font-face 
    font-family="MillerBanner Semibold"
    font-weight="600"
    font-stretch="normal"
    units-per-em="1000"
    panose-1="2 0 5 3 8 0 0 2 0 3"
    ascent="764"
    descent="-236"
    x-height="457"
    cap-height="683"
    bbox="-154 -235 1195 940"
    underline-thickness="20"
    underline-position="-113"
    unicode-range="U+0020-U+FB04"
  />
<missing-glyph horiz-adv-x="218" 
 />
    <glyph glyph-name="f_f" unicode="ff" horiz-adv-x="615" 
d="M502 457h122v-16h-121v-379q0 -34 27 -45q20 -8 59 -10v-7h-260v7q22 1 38 10q21 10 21 42v382h-179v-379q0 -32 22 -44q16 -8 43 -11v-7h-250v7q24 1 44 7q26 10 26 45v382h-99v16h99v19q0 121 70 197q63 67 158 67q101 0 130 -63q59 70 160 70q63 0 92 -28t29 -67
q0 -22 -17.5 -41t-46.5 -19q-24 0 -43.5 14.5t-19.5 41.5q0 16 6.5 37.5t7.5 31.5q-3 18 -28 18q-43 0 -64 -48.5t-25 -156.5q0 -10 -0.5 -40t-0.5 -33zM398 576q-24 0 -40.5 14t-16.5 37q0 13 4 26t10 26t8 18q-2 12 -15.5 22t-36.5 10q-44 0 -72.5 -54t-29.5 -158v-60h179
v24q0 52 10 95z" />
    <glyph glyph-name="f_i" unicode="fi" horiz-adv-x="582" 
d="M569 7v-7h-246v7q26 1 40 9q21 10 21 43v332q-3 33 -19 50h-156v-379q0 -28 18 -40q16 -12 49 -15v-7h-252v7q24 1 44 7q26 10 26 45v382h-99v16h99v25q0 122 72 197q64 68 170 68q84 0 123 -29.5t39 -77.5q0 -23 -17 -44t-47 -21q-28 0 -45.5 15.5t-17.5 42.5
q0 21 20 68q0 13 -17 24t-48 11q-50 0 -83 -56.5t-34 -162.5v-60h150l136 8l4 -4v-399q0 -34 26 -46q17 -7 44 -9z" />
    <glyph glyph-name="f_l" unicode="fl" horiz-adv-x="582" 
d="M570 7v-7h-246v7q25 1 41 8q20 10 20 44v522q-34 14 -34 52q0 14 5.5 25.5t14 21.5t9.5 12q-13 44 -64 44q-46 0 -76 -50t-31 -155v-74h115v-16h-115v-379q0 -32 22 -43q16 -9 46 -12v-7h-253v7q24 1 44 7q26 10 26 45v382h-99v16h99v25q0 122 72 198q63 67 156 67
q56 0 98 -21l76 20l4 -4v-679q0 -33 26 -45q21 -10 44 -11z" />
    <glyph glyph-name="f_f_i" unicode="ffi" horiz-adv-x="874" 
d="M630 747q83 0 122 -29.5t39 -77.5q0 -23 -17 -44t-47 -21q-28 0 -45.5 15.5t-17.5 42.5q0 10 2.5 20.5t5 16.5t7.5 17t6 14q-1 13 -18 24t-48 11q-50 0 -82.5 -56.5t-34.5 -162.5v-60h150l136 8l4 -4v-399q0 -34 26 -46q19 -7 45 -9v-7h-247v7q26 1 40 9q21 10 21 43v332
q-2 32 -18 50h-156v-380q0 -29 18 -40q12 -10 51 -14v-7h-243v7q22 1 38 10q21 10 21 42v382h-179v-379q0 -32 22 -44q16 -8 43 -11v-7h-250v7q24 1 44 7q26 10 26 45v382h-99v16h99v19q0 121 70 197q63 67 158 67q101 0 132 -68q27 32 74 53.5t102 21.5zM400 576
q-24 0 -41.5 14t-17.5 37q0 13 4 26t10 26t8 18q-2 12 -15.5 22t-36.5 10q-44 0 -72.5 -54t-29.5 -158v-60h179v24q0 44 12 95z" />
    <glyph glyph-name="f_f_l" unicode="ffl" horiz-adv-x="876" 
d="M616 747q56 0 98 -21l75 20l4 -4v-679q0 -33 27 -45q19 -10 43 -11v-7h-245v7q26 1 40 8q21 10 21 44v522q-34 14 -34 52q0 14 5.5 25.5t14 21.5t9.5 12q-15 44 -64 44q-46 0 -76 -50t-32 -155v-74h116v-16h-115v-380q0 -29 18 -40q13 -10 48 -14v-7h-240v7q22 1 38 10
q21 10 21 42v382h-179v-379q0 -32 22 -44q16 -8 43 -11v-7h-250v7q24 1 44 7q26 10 26 45v382h-99v16h99v19q0 121 70 197q63 67 158 67q104 0 131 -68q64 75 163 75zM400 575q-24 0 -41.5 14.5t-17.5 37.5q0 13 4 26t10 26t8 18q-2 12 -15.5 22t-36.5 10q-44 0 -72.5 -54
t-29.5 -158v-60h179v24q0 55 12 94z" />
    <glyph glyph-name="f_j" unicode="fj" horiz-adv-x="570" 
d="M384 -3l1 389q0 37 -28 55h-148v-379q0 -28 18 -40q16 -12 50 -15v-7h-253v7q24 1 44 7q26 10 26 45v382h-99v16h99v25q0 122 72 197q64 68 170 68q84 0 123 -29.5t39 -77.5q0 -23 -17 -44t-47 -21q-28 0 -45.5 15.5t-17.5 42.5q0 21 20 68q0 13 -17 24t-48 11
q-50 0 -83 -56.5t-34 -162.5v-60h151l136 8l4 -4v-418q0 -137 -63 -203q-62 -67 -144 -67q-59 0 -86 23.5t-27 59.5q0 21 17 40.5t44 19.5q24 0 43 -13.5t19 -40.5q0 -12 -6.5 -41.5t-7.5 -34.5q8 -2 20 -2q42 0 58.5 49.5t16.5 163.5z" />
    <glyph glyph-name="f_t" unicode="ft" horiz-adv-x="646" 
d="M456 605h44v-148h132v-16h-132v-307q0 -92 69 -92q31 0 49.5 27t21.5 62h11q-5 -61 -40 -101.5t-97 -40.5q-128 0 -128 140v312h-177v-378q0 -35 27 -45q21 -9 65 -11v-7h-277v7q24 1 44 7q26 10 26 45v382h-99v16h99v30q0 81 37 146q30 53 79 83.5t110 30.5
q75 0 111.5 -29.5t36.5 -70.5q0 -21 -12 -42zM318 736q-47 0 -78 -50t-31 -152v-77h179v127q-20 5 -32 20.5t-12 34.5q-2 34 24 63q-1 12 -14.5 23t-35.5 11z" />
    <glyph glyph-name=".notdef" horiz-adv-x="218" 
 />
    <glyph glyph-name=".null" horiz-adv-x="0" 
 />
    <glyph glyph-name="nonmarkingreturn" horiz-adv-x="333" 
 />
    <glyph glyph-name="space" unicode=" " horiz-adv-x="218" 
 />
    <glyph glyph-name="exclam" unicode="!" horiz-adv-x="324" 
d="M157 217q-10 92 -38 236.5t-28 172.5q0 31 19.5 53.5t51.5 22.5t51.5 -22.5t19.5 -53.5q0 -25 -11.5 -87.5l-29 -155.5t-27.5 -166h-8zM161 -9q-31 0 -52.5 21t-21.5 52t21.5 53t52.5 22t53 -21.5t22 -53.5q0 -31 -21.5 -52t-53.5 -21z" />
    <glyph glyph-name="quotedbl" unicode="&#x22;" horiz-adv-x="397" 
d="M162 677q0 -12 -10 -42.5l-25 -77.5t-23 -85h-10q-9 49 -32 120t-23 85q0 25 16.5 42.5t44.5 17.5t45 -18t17 -42zM358 677q0 -12 -10 -42.5l-25 -77.5t-23 -85h-10q-9 49 -32 120t-23 85q0 25 16.5 42.5t44.5 17.5t45 -18t17 -42z" />
    <glyph glyph-name="numbersign" unicode="#" horiz-adv-x="518" 
d="M183 -7v157l-112 -28v93l112 27v117l-112 -28v91l112 28v177h13v-173l126 32v141h13v-137l112 28v-92l-112 -28v-117l112 28v-91l-112 -28v-197h-13v193l-126 -32v-161h-13zM196 245l126 33v117l-126 -33v-117z" />
    <glyph glyph-name="dollar" unicode="$" horiz-adv-x="602" 
d="M255 -142v137q-87 9 -140 47.5t-53 94.5q0 44 18.5 68.5t51.5 24.5q27 0 41 -16.5t14 -44.5q0 -21 -11 -33t-26.5 -20.5t-20.5 -18.5q0 -34 36 -58.5t90 -31.5v256q-180 22 -180 170q0 69 46.5 118.5t133.5 63.5v98h15v-96q24 3 42 3q29 0 40 -2v95h16v-96
q76 -9 116.5 -43.5t40.5 -79.5q0 -36 -16 -59.5t-44 -23.5q-23 0 -39 14t-16 39t24 49.5t27 36.5q-5 16 -30.5 32.5t-62.5 22.5v-237q41 -7 69 -17t55 -29.5t40.5 -53t13.5 -80.5q0 -62 -43.5 -116.5t-134.5 -72.5v-141h-16v139q-34 -4 -56 -4q-20 0 -26 1v-136h-15zM270 5
h26q28 0 56 4v242q-34 6 -82 10v-256zM352 370v237q-9 1 -33 1q-21 0 -49 -4v-224zM368 14q44 13 65 47.5t21 77.5q0 95 -86 109v-234zM255 383v218q-39 -10 -62.5 -42.5t-23.5 -69.5q0 -91 86 -106z" />
    <glyph glyph-name="percent" unicode="%" horiz-adv-x="857" 
d="M220 293q-71 0 -118.5 42t-47.5 118q0 72 50.5 119.5t115.5 47.5q74 0 123 -41.5t49 -124.5q0 -67 -51.5 -114t-120.5 -47zM223 303q36 0 58 41.5t22 107.5q0 73 -20.5 116t-61.5 43q-40 0 -60 -43.5t-20 -110.5q0 -68 20 -111t62 -43zM631 -14q-71 0 -118.5 42
t-47.5 118q0 70 51 118.5t115 48.5q73 0 122.5 -41.5t49.5 -124.5q0 -67 -51.5 -114t-120.5 -47zM635 -5q34 0 56.5 43t22.5 107q0 71 -20.5 115t-60.5 44q-41 0 -61 -44t-20 -110q0 -68 20 -111.5t63 -43.5zM222 -96l-19 10l428 774l21 -10z" />
    <glyph glyph-name="ampersand" unicode="&#x26;" horiz-adv-x="748" 
d="M504 178q32 43 56 104t24 94q0 32 -99 49v6h281v-6q-92 -10 -126 -47q-11 -12 -54 -91.5t-74 -118.5q90 -110 117 -126q51 -30 114 -35v-7h-243q-25 28 -66 81q-95 -97 -189 -97q-84 0 -142 42t-58 123q0 68 41.5 113t135.5 97q-80 118 -80 184q0 68 53 111t134 43
q61 0 93.5 -37t32.5 -94q0 -88 -120 -161q61 -92 169 -227zM329 415q80 50 80 153q0 52 -19.5 85t-58.5 33q-37 0 -55.5 -29.5t-18.5 -78.5q0 -63 72 -163zM426 90q-163 211 -196 258q-59 -49 -59 -157q0 -68 33 -112t88 -44q85 0 134 55z" />
    <glyph glyph-name="quotesingle" unicode="'" horiz-adv-x="201" 
d="M162 677q0 -12 -10 -42.5l-25 -77.5t-23 -85h-10q-9 49 -32 120t-23 85q0 25 16.5 42.5t44.5 17.5t45 -18t17 -42z" />
    <glyph glyph-name="parenleft" unicode="(" horiz-adv-x="331" 
d="M314 -143l-28 -17q-244 177 -244 456q0 265 243 452l26 -15q-233 -179 -233 -435q-1 -270 236 -441z" />
    <glyph glyph-name="parenright" unicode=")" horiz-adv-x="331" 
d="M45 -160l-28 17q236 170 236 441q-1 256 -234 435l27 15q243 -188 243 -452q0 -278 -244 -456z" />
    <glyph glyph-name="asterisk" unicode="*" horiz-adv-x="384" 
d="M194 397q-29 0 -29 28q0 11 11 54t13 63q-18 -12 -47 -41.5t-36 -34.5q-26 -21 -42 4q-17 28 16 42q11 4 47.5 15t59.5 21q-23 10 -60.5 21.5t-49.5 16.5q-33 13 -16 42q20 26 43 3q8 -6 37.5 -35.5t47.5 -41.5q-2 21 -13 64t-11 53q0 28 29 28t29 -27q0 -10 -11.5 -53.5
t-14.5 -64.5q18 13 47.5 42.5t37.5 35.5q25 20 40 -6q16 -27 -14 -40q-11 -6 -49.5 -17.5t-59.5 -20.5q21 -8 57.5 -19t49.5 -17q15 -6 20 -18t-4 -25q-17 -25 -41 -5q-8 6 -37 35.5t-47 42.5q2 -19 14 -63t12 -54q0 -12 -7.5 -20t-21.5 -8z" />
    <glyph glyph-name="plus" unicode="+" horiz-adv-x="562" 
d="M260 19v220h-220v41h220v221h42v-221h220v-41h-220v-220h-42z" />
    <glyph glyph-name="comma" unicode="," horiz-adv-x="259" 
d="M211 22q0 -61 -46.5 -114.5t-105.5 -80.5l-5 10q46 25 75.5 68t33.5 96h-34q-44 0 -63 21t-19 52q0 26 19 47t50 21q48 0 71.5 -32.5t23.5 -87.5z" />
    <glyph glyph-name="hyphen" unicode="-" horiz-adv-x="376" 
d="M30 211v85h316v-85h-316z" />
    <glyph glyph-name="hyphen" unicode="&#xad;" horiz-adv-x="376" 
d="M30 211v85h316v-85h-316z" />
    <glyph glyph-name="period" unicode="." horiz-adv-x="259" 
d="M207 65q0 -32 -22.5 -54t-54.5 -22t-54.5 22t-22.5 54t22.5 54.5t54.5 22.5t54.5 -22.5t22.5 -54.5z" />
    <glyph glyph-name="slash" unicode="/" horiz-adv-x="404" 
d="M60 -208l-29 8l312 952l30 -9z" />
    <glyph glyph-name="zero" unicode="0" horiz-adv-x="619" 
d="M580 317q0 -149 -81 -240.5t-194 -91.5q-123 0 -193.5 88t-70.5 216q0 148 81.5 239.5t193.5 91.5q123 0 193.5 -87t70.5 -216zM445 304q0 307 -133 307q-64 0 -100 -85.5t-36 -223.5q0 -307 132 -307q65 0 101 85.5t36 223.5z" />
    <glyph glyph-name="one" unicode="1" horiz-adv-x="428" 
d="M400 7v-7h-338v7q49 3 78 12q33 10 33 44v484l-130 -8v8q78 11 132 24q76 18 120 45h9q-9 -51 -9 -158v-390q0 -35 29 -48q21 -10 76 -13z" />
    <glyph glyph-name="two" unicode="2" horiz-adv-x="566" 
d="M532 194l9 -3l-60 -191h-437v41q153 114 240 199q63 61 89 119t26 128q0 58 -25.5 90.5t-74.5 32.5q-69 0 -110 -63.5t-41 -132.5q0 -79 59 -79q52 0 97 58l6 -5q-56 -96 -150 -96q-48 0 -78.5 29t-30.5 79q0 80 78.5 150t191.5 70q88 0 143.5 -42.5t55.5 -115.5
q0 -95 -81 -169.5t-260 -166.5l-35 -28h286q35 0 58.5 27t43.5 69z" />
    <glyph glyph-name="three" unicode="3" horiz-adv-x="561" 
d="M518 193q0 -101 -86 -160t-212 -59q-83 0 -142 35.5t-59 101.5q0 44 26 69.5t64 25.5q28 0 44 -15.5t16 -39.5q0 -28 -32.5 -52.5t-32.5 -41.5q0 -29 28.5 -51.5t82.5 -22.5q68 0 119.5 63t51.5 154q0 117 -73 117q-39 0 -106 -63l-15 19q99 67 123 90q62 57 62 131
q0 53 -21.5 84t-65.5 31q-50 0 -87 -41t-37 -95q0 -67 52 -67q32 0 66 34l5 -5q-18 -26 -54 -50.5t-62 -24.5q-49 0 -75.5 24.5t-26.5 63.5q0 70 74.5 121t176.5 51q90 0 137 -40t47 -92q0 -54 -49 -94t-150 -55l-16 -14q30 5 52 5q30 0 58.5 -6.5t56 -21t44 -43t16.5 -66.5
z" />
    <glyph glyph-name="four" unicode="4" horiz-adv-x="581" 
d="M535 320v-207h-8q-2 51 -21 74q-15 20 -59 20h-45v-140q0 -36 28 -48q20 -9 67 -12v-7h-315v7q53 3 70 9q30 10 30 47v144h-264v13l336 409h48v-397h42q44 0 61 20q20 23 22 68h8zM49 232h233v281z" />
    <glyph glyph-name="five" unicode="5" horiz-adv-x="528" 
d="M496 623l5 -5q-24 -43 -61.5 -73t-78 -44.5t-74.5 -20.5t-66 -6q-67 0 -85 3l-38 -161q23 21 38 32t50.5 23.5t78.5 12.5q93 0 154 -48.5t61 -139.5q0 -96 -75.5 -153t-186.5 -57q-85 0 -139 33.5t-54 89.5q0 37 22 55.5t49 18.5q26 0 42 -15.5t16 -38.5
q0 -22 -13.5 -47.5t-15.5 -37.5q3 -20 27.5 -35t64.5 -15q63 0 97 67.5t34 158.5q0 71 -30 110t-84 39q-41 0 -83 -25.5t-62 -66.5l-13 3l76 337h11q12 -13 59 -26t101 -13q115 0 173 45z" />
    <glyph glyph-name="six" unicode="6" horiz-adv-x="571" 
d="M534 591q0 -62 -60 -62q-10 0 -18 1.5t-14 6l-11 8t-9 12t-6.5 13t-5 16t-4 16.5t-4 19t-3.5 19q-6 25 -16.5 35t-31.5 10q-61 0 -110 -98.5t-66 -244.5l5 -2q58 89 162 89q74 0 128 -58.5t54 -152.5q0 -40 -12.5 -78.5t-39.5 -74.5t-77.5 -58t-118.5 -22q-98 0 -163 78
t-65 213q0 174 103 299t239 125q73 0 108.5 -34.5t35.5 -74.5zM392 217q0 85 -26 134.5t-80 49.5q-49 0 -81.5 -53.5t-32.5 -150.5q0 -91 28.5 -146.5t78.5 -55.5q113 0 113 222z" />
    <glyph glyph-name="seven" unicode="7" horiz-adv-x="497" 
d="M515 595v-10q-55 -76 -87 -133t-67 -142q-62 -152 -72 -330q-6 -100 -75 -100q-62 0 -62 76q0 40 32 116t82 158q83 136 172 260h-289q-39 0 -64 -30t-45 -84l-10 3l63 272h7l12 -56h403z" />
    <glyph glyph-name="eight" unicode="8" horiz-adv-x="561" 
d="M516 185q0 -89 -75 -145t-179 -56q-94 0 -154.5 43t-60.5 108q0 53 41.5 91t100.5 60q-65 30 -93 66.5t-28 91.5q0 76 66.5 129t153.5 53q90 0 145 -39t55 -103q0 -39 -33 -74t-89 -59q74 -31 112 -68t38 -98zM420 129q0 42 -30.5 69.5t-90.5 48.5l-97 34
q-66 -49 -66 -145q0 -58 36 -99t105 -41q63 0 103 39t40 94zM409 485q0 54 -32.5 92t-92.5 38q-61 0 -92.5 -35t-31.5 -81q0 -67 95 -107q45 -20 98 -35q56 34 56 128z" />
    <glyph glyph-name="nine" unicode="9" horiz-adv-x="571" 
d="M522 325q0 -177 -98.5 -302.5t-251.5 -125.5q-71 0 -110.5 31.5t-39.5 74.5q0 30 17.5 47t48.5 17q16 0 27 -6t17.5 -19.5t10 -24t7.5 -30.5t6 -28q15 -48 54 -48q50 0 90.5 52.5t63.5 130t32 168.5l-5 1q-62 -86 -161 -86q-76 0 -129.5 57t-53.5 153q0 41 14 81
t41.5 74.5t75.5 56t110 21.5q98 0 166 -74t68 -221zM400 403q0 93 -32 150t-81 57q-108 0 -108 -211q0 -90 26.5 -140.5t80.5 -50.5q47 0 80.5 48.5t33.5 146.5z" />
    <glyph glyph-name="colon" unicode=":" horiz-adv-x="288" 
d="M144 -9q-31 0 -53 21t-22 52t22 53t53 22q30 0 52 -22t22 -53t-22 -52t-52 -21zM144 310q-31 0 -53 21.5t-22 52.5t22 53t53 22q30 0 52 -22t22 -53t-22 -52.5t-52 -21.5z" />
    <glyph glyph-name="semicolon" unicode=";" horiz-adv-x="288" 
d="M73 -176l-3 8q46 26 74 70.5t32 99.5h-33q-41 0 -59.5 20t-18.5 50q0 25 19 45.5t49 20.5q46 0 69 -30.5t23 -83.5q0 -66 -47.5 -119.5t-104.5 -80.5zM144 310q-31 0 -53 21.5t-22 52.5t22 53t53 22q30 0 52 -22t22 -53t-22 -52.5t-52 -21.5z" />
    <glyph glyph-name="less" unicode="&#x3c;" horiz-adv-x="562" 
d="M498 33l-442 211v32l442 211v-43l-389 -184l389 -184v-43z" />
    <glyph glyph-name="equal" unicode="=" horiz-adv-x="562" 
d="M60 155v41h442v-41h-442zM60 324v41h442v-41h-442z" />
    <glyph glyph-name="greater" unicode="&#x3e;" horiz-adv-x="562" 
d="M64 33v43l388 184l-388 184v43l442 -211v-32z" />
    <glyph glyph-name="question" unicode="?" horiz-adv-x="492" 
d="M447 501q0 -91 -65.5 -151t-176.5 -67l-6 -90h-11l-1 186q73 9 110.5 44t37.5 107q0 78 -28.5 118t-80.5 40q-22 0 -43.5 -8.5t-30.5 -19.5q1 -3 8 -19t10.5 -29.5t3.5 -30.5q0 -30 -20 -48t-46 -18q-32 0 -48 19t-16 50q0 45 53 80t133 35q101 0 159 -54t58 -144z
M274 63q0 -31 -22 -53t-54 -22t-54 22t-22 53t22 53.5t54 22.5t54 -22.5t22 -53.5z" />
    <glyph glyph-name="at" unicode="@" horiz-adv-x="1010" 
d="M511 -215q-111 0 -205.5 44.5t-154.5 136t-60 213.5q0 132 67.5 242.5t179 172.5t239.5 62q148 0 237.5 -90t89.5 -232q0 -122 -70 -211.5t-164 -89.5q-44 0 -72 22t-29 62l-3 1q-22 -36 -52.5 -59.5t-62.5 -23.5q-41 0 -73.5 32t-32.5 101q0 49 26.5 107.5t80 104.5
t116.5 46q28 0 48.5 -16.5t24.5 -45.5h3l21 56h76l-94 -269q-12 -32 -12 -57q0 -50 43 -50q76 0 141 84.5t65 211.5q0 129 -85.5 210.5t-220.5 81.5q-69 0 -137 -31t-123 -86.5t-89 -142t-34 -188.5q0 -175 95.5 -271.5t241.5 -96.5q144 0 253 77t160 226l9 -3
q-48 -160 -169.5 -245.5t-273.5 -85.5zM466 55q54 0 107 94l64 192q-12 72 -69 72q-38 0 -73 -48t-54 -112t-20 -117q0 -81 45 -81z" />
    <glyph glyph-name="A" unicode="A" horiz-adv-x="681" 
d="M710 7v-7h-340v7q103 6 106 34q2 13 -4 24l-69 183h-237q-40 -103 -52 -139q-14 -48 -14 -61q0 -34 121 -41v-7h-250v7q38 2 59 15q32 20 57 79l243 593h35l247 -624q14 -36 40 -50q21 -11 58 -13zM172 264h224l-110 282z" />
    <glyph glyph-name="B" unicode="B" horiz-adv-x="672" 
d="M636 183q0 -93 -74.5 -138t-187.5 -45h-345v7q54 3 75 11q31 12 31 49v545q0 38 -31 51q-26 10 -73 13v7h349q60 0 107 -12.5t80 -46t33 -85.5q0 -133 -187 -167v-9q85 -4 154 -49.5t69 -130.5zM456 524q0 67 -36.5 107t-88.5 40q-45 0 -63 -1v-302h42q74 0 110 43.5
t36 112.5zM488 196q0 69 -41.5 114.5t-114.5 45.5q-25 0 -64 -3v-289q5 -28 24 -40.5t60 -12.5q68 0 102 55t34 130z" />
    <glyph glyph-name="C" unicode="C" horiz-adv-x="653" 
d="M630 182l13 -6q-36 -84 -104.5 -137.5t-172.5 -53.5q-148 0 -242 94.5t-94 253.5q0 158 100.5 261.5t253.5 103.5q111 0 185 -52l33 47h10l4 -251h-10q-35 111 -94.5 176.5t-139.5 65.5q-92 0 -142 -89.5t-50 -248.5q0 -149 56.5 -236.5t162.5 -87.5q153 0 231 160z" />
    <glyph glyph-name="D" unicode="D" horiz-adv-x="770" 
d="M348 0h-316v7q52 2 72 10q31 10 31 47v549q0 39 -31 51q-25 10 -70 12v7h331q46 0 93.5 -9.5t99.5 -34t91.5 -62t65.5 -100t26 -140.5q0 -84 -33.5 -150.5t-89.5 -106t-125 -60t-145 -20.5zM268 670v-587q5 -71 96 -71q114 0 169.5 87t55.5 239q0 149 -66.5 241.5
t-178.5 92.5q-36 0 -76 -2z" />
    <glyph glyph-name="E" unicode="E" horiz-adv-x="661" 
d="M634 0h-605v7q50 2 75 11q31 10 31 47v548q0 39 -31 50q-28 11 -75 13v7h565v-166h-10q-11 40 -51.5 93t-72.5 57q-40 5 -94 5h-98v-312h84q57 0 86 31q12 12 25.5 45.5t16.5 55.5h10v-281h-10q-2 22 -16.5 58.5t-25.5 47.5q-27 31 -86 31h-84v-248q0 -58 20 -73t93 -15
q45 0 65.5 0.5t49 6t39.5 16.5q23 24 55.5 78.5t47.5 86.5h9z" />
    <glyph glyph-name="F" unicode="F" horiz-adv-x="610" 
d="M601 683v-171h-9q-12 40 -51.5 93t-71.5 61q-28 6 -94 6h-107v-315h84q58 0 89 29q12 12 25.5 45t17.5 58h10v-284h-10q-4 26 -17 61t-26 49q-30 30 -89 30h-84v-278q0 -36 31 -49q19 -8 74 -11v-7h-347v7q61 3 78 10q31 12 31 49v547q0 38 -31 50q-24 10 -78 13v7h575z
" />
    <glyph glyph-name="G" unicode="G" horiz-adv-x="742" 
d="M751 303v-8q-59 -9 -65 -12q-30 -13 -30 -51v-247l-8 -3l-60 63q-125 -60 -240 -60q-83 0 -154 37.5t-117.5 117.5t-46.5 189q0 160 105 264.5t266 104.5q56 0 109.5 -16t84.5 -37l34 48h10l4 -246h-10q-34 104 -97.5 170.5t-149.5 66.5q-100 0 -152.5 -91.5
t-52.5 -251.5q0 -154 52.5 -247.5t146.5 -93.5q65 0 103 29.5t48 77.5v117q0 44 -33 57q-27 11 -86 14v8h339z" />
    <glyph glyph-name="H" unicode="H" horiz-adv-x="844" 
d="M810 7v-7h-335v7q53 3 71 10q31 10 31 47v283h-309v-279q0 -38 31 -50q21 -9 71 -11v-7h-336v7q50 2 70 10q31 10 31 47v549q0 38 -31 50q-32 11 -70 13v7h336v-7q-41 -2 -71 -11q-31 -10 -31 -49v-253h309v250q0 38 -31 50q-25 10 -71 13v7h335v-7q-38 -2 -69 -11
t-31 -49v-548q0 -38 31 -50q21 -9 69 -11z" />
    <glyph glyph-name="I" unicode="I" horiz-adv-x="406" 
d="M270 616v-548q0 -38 31 -50q21 -9 72 -11v-7h-339v7q52 2 72 10q31 10 31 47v549q0 38 -31 50q-31 11 -72 13v7h339v-7q-43 -2 -72 -11q-31 -10 -31 -49z" />
    <glyph glyph-name="J" unicode="J" horiz-adv-x="508" 
d="M492 683v-7q-48 -3 -73 -11q-31 -10 -31 -49v-420q0 -83 -66.5 -148t-167.5 -65q-80 0 -119 31t-39 77q0 36 22 58.5t59 22.5q35 0 55 -21t20 -56q0 -61 -65 -86v-5q18 -9 43 -9q75 0 100 47t25 146v424q0 36 -31 50q-25 11 -79 14v7h347z" />
    <glyph glyph-name="K" unicode="K" horiz-adv-x="751" 
d="M780 7v-7h-369v7q25 2 40 4.5t28 12t13 25.5q0 23 -67 112t-141 174h-16v-266q0 -36 30 -50q23 -10 68 -12v-7h-332v7q51 3 70 10q31 12 31 46v550q0 37 -31 50q-26 11 -70 13v7h335v-7q-41 -2 -70 -11q-31 -10 -31 -49v-268h13q104 87 186.5 174.5t82.5 118.5
q0 26 -93 35v7h270v-7q-96 -7 -143 -54q-154 -156 -206 -202l69 -81.5l57.5 -72l68.5 -91l61 -81.5q41 -55 80 -73q27 -12 66 -14z" />
    <glyph glyph-name="L" unicode="L" horiz-adv-x="625" 
d="M623 204h8l-13 -204h-588v7q56 3 74 11q31 12 31 49v546q0 36 -31 50q-23 10 -74 13v7h341v-7q-58 -3 -72 -8q-31 -10 -31 -50v-517q0 -59 20 -74t93 -15q114 0 138 24q22 22 56 78.5t48 89.5z" />
    <glyph glyph-name="M" unicode="M" horiz-adv-x="940" 
d="M908 7v-7h-352v7q67 4 83 12q32 17 32 51v557l-252 -616h-18q-29 88 -51 139l-202 462v-453q0 -104 33 -132q19 -15 101 -20v-7h-274v7q2 0 17.5 1.5l26.5 2.5t25.5 5t22.5 10q32 24 32 132v410q0 61 -30 85q-26 21 -89 23v7h243l219 -492l167 407q18 44 22 85h243v-7
q-44 -2 -73 -12q-31 -10 -31 -49v-545q0 -34 31 -49q21 -11 74 -14z" />
    <glyph glyph-name="N" unicode="N" horiz-adv-x="754" 
d="M762 683v-7q-74 -9 -92 -22q-32 -23 -32 -143v-516h-30l-460 584v-410q0 -113 33 -138q12 -10 44.5 -16.5t53.5 -7.5v-7h-271v7q74 9 92 22q32 25 32 137v395q0 52 -34 83q-25 22 -98 31v8h228l394 -498v325q0 116 -34 144q-23 18 -98 22v7h272z" />
    <glyph glyph-name="O" unicode="O" horiz-adv-x="768" 
d="M737 346q0 -171 -108 -270q-97 -92 -249 -92q-144 0 -244 94q-106 99 -106 256q0 168 105 268q102 97 249 97q150 0 251 -97q102 -97 102 -256zM586 343q0 69 -10.5 128t-33.5 109t-63.5 78.5t-94.5 28.5q-96 0 -149 -92t-53 -256q0 -152 50.5 -247.5t151.5 -95.5
t151.5 95.5t50.5 251.5z" />
    <glyph glyph-name="P" unicode="P" horiz-adv-x="625" 
d="M607 517q0 -68 -40.5 -117t-101.5 -71t-134 -22h-63v-239q0 -38 31 -50q21 -9 76 -11v-7h-345v7q53 3 74 11q31 12 31 49v546q0 39 -31 50q-28 10 -76 13v7h347q108 0 170 -43t62 -123zM458 493q0 48 -11.5 85.5t-43.5 64.5t-83 27h-52v-349h35q45 0 77.5 17t48.5 44.5
t22.5 54.5t6.5 56z" />
    <glyph glyph-name="Q" unicode="Q" horiz-adv-x="772" 
d="M822 -9l8 -4q-19 -54 -73 -104t-127 -50q-71 0 -120.5 38.5t-65.5 121.5q-34 -8 -64 -8q-145 0 -243 92q-107 101 -107 257q0 163 101 264q99 101 253 101q150 0 253 -99q100 -95 100 -254q0 -101 -45 -181.5t-133 -129.5q17 -66 56.5 -96t87.5 -30q42 0 74 24t45 58z
M586 343q0 69 -11 128.5t-33.5 109t-63 78t-94.5 28.5q-96 0 -149 -92.5t-53 -255.5q0 -155 48 -238q23 59 64 88.5t85 29.5q54 0 97.5 -37t62.5 -102q47 84 47 263zM441 5q-12 94 -34 135.5t-65 41.5q-28 0 -58 -22.5t-48 -70.5q58 -91 148 -91q20 0 57 7z" />
    <glyph glyph-name="R" unicode="R" horiz-adv-x="734" 
d="M739 158v-22q0 -147 -137 -147q-63 0 -96.5 39t-44.5 128q-4 32 -8.5 55t-14 48.5t-23 41t-36.5 26t-53 10.5h-58v-270q0 -37 31 -49q20 -8 71 -11v-7h-340v7q53 3 74 11q31 12 31 49v546q0 39 -31 50q-27 10 -74 13v7h357q102 0 168 -39t66 -116q0 -74 -56 -117
t-138 -60v-8q133 -13 158 -104q8 -30 18 -80t15 -70q12 -46 48 -46q25 0 42.5 25t17.5 69v21h13zM472 509q0 79 -38 120t-103 41h-63v-319h41q72 0 117.5 38.5t45.5 119.5z" />
    <glyph glyph-name="S" unicode="S" horiz-adv-x="558" 
d="M527 197q0 -92 -68 -151.5t-174 -59.5q-120 0 -201 54l-33 -49h-10l-6 242h9q90 -234 237 -234q67 0 101 40t34 99q0 90 -107 130l-65 24t-71 28q-120 52 -120 185q0 82 61 137.5t157 55.5q111 0 179 -50l31 45h10l4 -232h-9q-33 102 -83.5 163t-129.5 61
q-48 0 -82 -33.5t-34 -85.5q0 -84 102 -130q25 -11 70.5 -27.5t62.5 -23.5q68 -31 101.5 -72.5t33.5 -115.5z" />
    <glyph glyph-name="T" unicode="T" horiz-adv-x="631" 
d="M628 683v-179h-9q-11 41 -49 100t-67 63q-31 4 -77 4h-44v-601q0 -37 31 -50q24 -10 81 -13v-7h-357v7q61 3 81 11q31 12 31 50v603h-43q-48 0 -77 -4t-67.5 -63t-49.5 -100h-9v179h625z" />
    <glyph glyph-name="U" unicode="U" horiz-adv-x="774" 
d="M775 683v-7q-66 -3 -92 -22q-32 -22 -32 -133v-309q0 -58 -23 -103.5t-60.5 -72t-81.5 -39.5t-90 -13q-131 0 -202.5 61t-71.5 157v412q0 34 -31 50q-17 9 -69 12v7h336v-7q-41 -2 -71 -11q-31 -10 -31 -49v-412q0 -182 171 -182q98 0 153 55t55 139v301q0 110 -34 135
q-30 21 -97 24v7h271z" />
    <glyph glyph-name="V" unicode="V" horiz-adv-x="673" 
d="M703 683v-7q-26 -1 -55 -14q-29 -15 -57 -80l-243 -590h-34l-85 224l-97 246l-57 145q-16 43 -44 56q-26 10 -59 13v7h335v-7q-100 -8 -100 -32q-1 -8 5 -25q12 -34 81 -211l100 -261q69 159 159 390q25 62 25 94q0 21 -30 31t-87 14v7h243z" />
    <glyph glyph-name="W" unicode="W" horiz-adv-x="992" 
d="M1021 683v-7q-31 -2 -59 -17q-30 -17 -57 -88l-208 -579h-42l-160 496l-182 -496h-41l-111.5 350l-85.5 265q-10 37 -37 53q-23 14 -59 16v7h323v-7q-35 -2 -65.5 -10.5t-30.5 -23.5q0 -12 5 -29l146 -455l131 357q-34 124 -66 144q-23 15 -65 17v7h326v-7
q-100 -6 -100 -34q0 -16 5 -29q19 -60 152 -455q98 265 129 372q22 72 22 97q0 41 -117 49v7h247z" />
    <glyph glyph-name="X" unicode="X" horiz-adv-x="754" 
d="M766 7v-7h-392v7q112 6 112 40q0 21 -57 108l-95 140q-101 -124 -117 -145q-67 -89 -67 -105q0 -19 28.5 -26.5t79.5 -11.5v-7h-267v7q37 2 64 13q45 19 91 74l178 216q-24 33 -97.5 141.5t-95.5 138.5q-38 56 -75 73q-21 10 -63 13v7h392v-7q-113 -6 -113 -36
q0 -28 67 -128q2 -2 33 -48t42 -61q80 98 105 133q61 82 61 103q0 19 -28 26t-81 11v7h268v-7q-40 -2 -64 -13q-46 -20 -90 -74l-161 -199l110 -159t96 -138q41 -58 74 -74q18 -8 62 -12z" />
    <glyph glyph-name="Y" unicode="Y" horiz-adv-x="657" 
d="M683 683v-7q-30 -4 -48 -14q-33 -18 -60 -62q-57 -88 -150 -257q-21 -39 -26.5 -63t-5.5 -67v-144q0 -36 30 -50q20 -8 81 -12v-7h-357v7q64 4 81 10q31 12 31 50v174q0 37 -28 90q-70 136 -143 260q-31 52 -62 70q-24 13 -60 15v7h353v-7q-104 -6 -104 -31q0 -14 46 -99
q1 -2 51.5 -95t76.5 -137l125 219q46 84 46 101q0 35 -111 42v7h234z" />
    <glyph glyph-name="Z" unicode="Z" horiz-adv-x="626" 
d="M612 213h10l-23 -213h-599v11l457 660h-173q-64 0 -90 -9q-30 -8 -73.5 -61.5t-71.5 -109.5h-10l21 192h550v-11l-457 -660h191q125 0 152 28q29 30 63.5 82.5t52.5 90.5z" />
    <glyph glyph-name="bracketleft" unicode="[" horiz-adv-x="557" 
d="M483 -199l-5 2q18 20 18 45q0 9 -2.5 15.5t-10.5 14.5t-28 12.5t-51 4.5q-67 0 -130.5 -10.5t-175.5 -35.5l-23 -8v886l23 -8q112 -25 175.5 -35.5t130.5 -10.5q31 0 51 4t28 11.5t10.5 14t2.5 17.5q0 22 -16 44l5 3q9 -7 18 -26t9 -38q0 -55 -33 -87t-99 -32
q-36 0 -74 12.5t-59 23.5t-72 43t-70 43v-844q19 11 70 43t72 43t59 23.5t74 12.5q66 0 99 -32t33 -87q0 -38 -29 -64z" />
    <glyph glyph-name="backslash" unicode="\" horiz-adv-x="404" 
d="M344 -208l-313 951l29 9l313 -952z" />
    <glyph glyph-name="bracketright" unicode="]" horiz-adv-x="557" 
d="M80 -199q-10 8 -19.5 26t-9.5 38q0 55 32.5 87t97.5 32q36 0 74.5 -12.5t59.5 -23.5t72.5 -43l69.5 -43v844l-69.5 -43t-72.5 -43t-59.5 -23.5t-74.5 -12.5q-65 0 -97.5 32t-32.5 87q0 20 8.5 38.5t17.5 25.5l5 -3q-16 -22 -16 -44q0 -11 2.5 -17.5t10.5 -14t28 -11.5
t51 -4q68 0 131 10.5t175 35.5l23 8v-886l-23 8q-114 26 -176 36t-130 10q-31 0 -51 -4.5t-28 -12.5t-10.5 -14.5t-2.5 -15.5q0 -24 19 -45z" />
    <glyph glyph-name="asciicircum" unicode="^" horiz-adv-x="436" 
d="M219 530l-168 -136l-6 3l117 188q14 23 24 29t32 6t32 -6t24 -29l117 -188l-6 -3z" />
    <glyph glyph-name="underscore" unicode="_" horiz-adv-x="598" 
d="M-7 -149v41h610v-41h-610z" />
    <glyph glyph-name="grave" unicode="`" 
d="M343 533l-5 -5l-63 44.5l-55 37l-34 22.5q-27 19 -38 32t-11 34q0 17 13.5 30.5t35.5 13.5q21 0 36.5 -12t31.5 -39q12 -20 41 -72.5z" />
    <glyph glyph-name="a" unicode="a" horiz-adv-x="496" 
d="M499 125h11q-6 -136 -113 -136q-73 0 -101 66h-3q-59 -68 -145 -68q-52 0 -85.5 30.5t-33.5 78.5q0 57 25.5 83.5t72.5 44.5q19 7 83 27t84 31v69q0 109 -72 109q-40 0 -59 -24q0 -10 8 -39.5t8 -43.5q0 -18 -19.5 -34t-49.5 -16q-29 0 -43 17.5t-14 42.5q0 44 56 75.5
t119 31.5q44 0 73 -5t56.5 -19.5t40.5 -45.5t13 -79q0 -52 -3 -139.5t-3 -96.5q0 -15 11.5 -32t30.5 -17q23 0 36.5 25.5t15.5 63.5zM291 71l4 196q-75 -26 -109.5 -57.5t-34.5 -92.5q0 -87 60 -87q51 0 80 41z" />
    <glyph glyph-name="b" unicode="b" horiz-adv-x="551" 
d="M524 226q0 -103 -66.5 -171.5t-160.5 -68.5q-88 0 -164 54l-59 -58l-8 2q5 67 5 183v494q-1 39 -27 55q-15 10 -65 12v7l204 11l4 -4v-334l3 -1q58 63 131 63q89 0 146 -65t57 -179zM396 223q0 92 -28.5 150.5t-90.5 58.5q-54 0 -90 -44v-308q27 -84 95 -84
q53 0 83.5 62.5t30.5 164.5z" />
    <glyph glyph-name="c" unicode="c" horiz-adv-x="440" 
d="M429 123l11 -7q-27 -56 -77.5 -92.5t-111.5 -36.5q-110 0 -167.5 67t-57.5 176q0 99 63 169.5t168 70.5q78 0 119.5 -33t41.5 -84q0 -28 -18 -45.5t-48 -17.5q-26 0 -44.5 15.5t-18.5 43.5q0 18 12 46t13 33q-7 31 -57 31q-47 0 -76 -56t-29 -164q0 -98 35 -154t95 -56
q100 0 147 94z" />
    <glyph glyph-name="d" unicode="d" horiz-adv-x="565" 
d="M566 15v-6l-193 -12l-5 6v44l-4 1q-58 -61 -131 -61q-89 0 -148 68t-59 179q0 102 66.5 169t156.5 67q53 0 118 -26v215q-3 38 -26 54q-18 11 -87 16v6l222 11l5 -5v-663q3 -33 26 -49q18 -12 59 -14zM367 67v310q-10 31 -33.5 55.5t-63.5 24.5q-54 0 -85 -64.5
t-31 -168.5q0 -87 29 -144.5t94 -57.5q51 0 90 45z" />
    <glyph glyph-name="e" unicode="e" horiz-adv-x="462" 
d="M443 121l9 -6q-28 -57 -79.5 -92.5t-117.5 -35.5q-112 0 -170.5 68.5t-58.5 175.5q0 98 59.5 168.5t160.5 70.5t148.5 -54.5t47.5 -137.5v-8h-292v-22q0 -222 143 -222q52 0 87 22.5t63 72.5zM150 281l169 2q0 176 -77 176q-40 0 -65 -49.5t-27 -128.5z" />
    <glyph glyph-name="f" unicode="f" horiz-adv-x="322" 
d="M439 652q0 -22 -17.5 -41t-45.5 -19q-24 0 -44 15t-20 41q0 15 6.5 36.5t7.5 32.5q-3 18 -27 18q-43 0 -64 -48.5t-25 -156.5q-1 -17 -1 -73h124v-16h-124v-378q0 -35 27 -45q21 -9 65 -11v-7h-277v7q24 1 44 7q26 10 26 45v382h-99v16h99v25q0 128 68 200q62 65 157 65
q62 0 91 -28t29 -67z" />
    <glyph glyph-name="g" unicode="g" horiz-adv-x="505" 
d="M514 456q0 -23 -12.5 -37.5t-33.5 -14.5q-44 0 -52 60q-31 -3 -50 -29v-5q54 -44 54 -115q0 -63 -54.5 -103t-127.5 -40h-72q-29 -17 -29 -38q0 -7 1.5 -13t6 -10.5t8.5 -7.5t12 -5t12.5 -3.5t15.5 -2.5t16 -1t17.5 -0.5t16.5 -0.5l120 -6q50 -3 91.5 -40.5t41.5 -99.5
q0 -76 -65.5 -123.5t-194.5 -47.5q-226 0 -226 123q0 42 43 69.5t121 29.5v6q-112 28 -112 94q0 19 9 33.5t26 24.5t29.5 15t32.5 11v5q-58 20 -89.5 55.5t-31.5 80.5q0 70 57.5 110t135.5 40q23 0 46.5 -4t38 -8t29.5 -9t17 -6q25 33 48 48t54 15q19 0 34.5 -14.5
t15.5 -35.5zM407 -88q0 54 -52 71q-40 6 -169 6q-80 -21 -80 -97q0 -44 36.5 -76t113.5 -32q70 0 110.5 35.5t40.5 92.5zM305 319q0 59 -18.5 99.5t-58.5 40.5q-72 0 -72 -137q0 -65 18.5 -103t54.5 -38q39 0 57.5 38t18.5 100z" />
    <glyph glyph-name="h" unicode="h" horiz-adv-x="578" 
d="M197 746l4 -4v-354h2l13.5 13.5l15 15t14.5 13t18 13.5l19 10t23 9.5t24.5 5t30.5 2.5q69 0 103 -42t34 -116v-252q0 -35 23 -45q15 -6 45 -8v-7h-249v7q26 2 42 7q22 8 22 45v262q0 49 -21 74.5t-53 25.5q-40 0 -68 -17.5t-38 -38.5v-304q0 -35 21 -45q14 -7 44 -9v-7
h-249v7q25 1 43 7q26 8 26 42v605q-2 37 -25 54q-16 11 -69 14v6z" />
    <glyph glyph-name="i" unicode="i" horiz-adv-x="291" 
d="M216 656q0 -31 -21.5 -52.5t-52.5 -21.5q-30 0 -51.5 21t-21.5 51q0 31 21.5 52t51.5 21q31 0 52.5 -20.5t21.5 -50.5zM282 7v-7h-258v7q29 2 44 7q26 9 26 44v323q-2 35 -26 52q-16 11 -59 13v6l196 11l4 -4v-399q0 -32 25 -45q12 -6 48 -8z" />
    <glyph glyph-name="j" unicode="j" horiz-adv-x="293" 
d="M227 656q0 -31 -21 -52.5t-52 -21.5q-30 0 -51.5 21t-21.5 51q0 31 21.5 52t51.5 21q31 0 52 -20.5t21 -50.5zM218 463l4 -4v-416q0 -137 -63 -203q-62 -67 -143 -67q-59 0 -86.5 23.5t-27.5 59.5q0 21 17 40.5t44 19.5q24 0 43 -13.5t19 -40.5q0 -12 -6.5 -41.5
t-7.5 -34.5q8 -2 20 -2q42 0 58.5 49.5t16.5 163.5v380q-2 36 -26 53q-16 10 -83 15v7z" />
    <glyph glyph-name="k" unicode="k" horiz-adv-x="540" 
d="M197 746l4 -4v-516q145 141 172 173q12 14 12 25q0 17 -74 26v7h203v-6q-68 -14 -126 -62q-36 -32 -83 -80q21 -10 39.5 -23.5t35.5 -35l27.5 -34.5t26 -44l20 -40t21 -46t17.5 -40q11 -23 33 -31q24 -9 37 -9v-6h-184q-11 43 -33 93.5t-54 92.5t-59 42q-16 0 -31 -15
v-152q0 -35 21 -45q14 -7 44 -9v-7h-249v7q25 1 43 7q26 8 26 42v605q-2 37 -25 54q-16 11 -69 14v6z" />
    <glyph glyph-name="l" unicode="l" horiz-adv-x="283" 
d="M270 7v-7h-255v7q29 2 43 6q27 10 27 45v602q-2 38 -27 55q-17 11 -69 14v6l207 11l4 -4v-680q0 -35 26 -47q16 -6 44 -8z" />
    <glyph glyph-name="m" unicode="m" horiz-adv-x="871" 
d="M204 463l4 -4v-71h3l13.5 14t15.5 15.5l15 13t17.5 13.5l18 10t22.5 9t24.5 4.5t29.5 2.5q92 0 128 -86h3q35 41 71.5 63.5t90.5 22.5q66 0 98.5 -43t32.5 -116v-251q0 -34 24 -45q15 -6 44 -8v-7h-246v7q24 1 41 7q21 9 21 45v260q0 49 -20 76t-52 27q-39 0 -66 -17
t-37 -37v-306q0 -35 22 -46q15 -7 40 -9v-7h-238v7q22 1 39 7q21 9 21 45v262q0 49 -19.5 74.5t-51.5 25.5q-40 0 -67 -18t-38 -38v-304q0 -35 22 -45q14 -7 43 -9v-7h-249v7q25 1 43 7q26 8 26 42v323q-2 37 -25 53q-18 12 -50 14v6z" />
    <glyph glyph-name="n" unicode="n" horiz-adv-x="585" 
d="M573 7v-7h-249v7q27 2 43 7q22 8 22 45v262q0 49 -21 74.5t-53 25.5q-40 0 -68.5 -17.5t-38.5 -38.5v-304q0 -35 22 -45q14 -7 44 -9v-7h-250v7q25 1 43 7q26 8 26 42v323q-2 37 -25 53q-18 12 -50 14v6l186 11l4 -4v-71h3l13.5 13.5l15 15t14.5 13t18 13.5l19 10t23 9.5
t24.5 5t30.5 2.5q69 0 102.5 -42t33.5 -116v-252q0 -34 24 -45q15 -6 44 -8z" />
    <glyph glyph-name="o" unicode="o" horiz-adv-x="528" 
d="M503 232q0 -106 -64.5 -176t-178.5 -70q-99 0 -167 66t-68 175q0 108 66 175.5t175 67.5q108 0 172.5 -66.5t64.5 -171.5zM375 232q0 227 -109 227q-112 0 -112 -225q0 -238 111 -238q110 0 110 236z" />
    <glyph glyph-name="p" unicode="p" horiz-adv-x="566" 
d="M297 -226h-294v7q35 2 55 8q26 8 26 46v545q-2 36 -25 52q-18 12 -53 14v6l188 11l4 -5v-52l4 -1q60 65 133 65q87 0 144 -67t57 -174q0 -104 -65 -172.5t-157 -68.5q-69 0 -111 31h-4v-178q0 -36 28 -47q30 -11 70 -13v-7zM199 386v-310q24 -76 96 -76q56 0 85 60.5
t29 163.5q0 89 -29 147t-91 58q-54 0 -90 -43z" />
    <glyph glyph-name="q" unicode="q" horiz-adv-x="551" 
d="M568 -219v-7h-285v7q37 2 57 8q27 9 27 47v210l-4 1q-56 -59 -130 -59q-90 0 -148.5 67.5t-58.5 178.5q0 102 69.5 169t166.5 67q76 0 160 -46l61 57l6 -1q-8 -160 -8 -167v-475q0 -35 27 -47q10 -4 60 -10zM367 68v311q-24 79 -96 79q-55 0 -86 -65t-31 -168
q0 -87 28.5 -144.5t92.5 -57.5q53 0 92 45z" />
    <glyph glyph-name="r" unicode="r" horiz-adv-x="414" 
d="M417 393q0 -31 -17.5 -52t-46.5 -21t-46 15t-17 43q0 10 14 52q-30 -1 -57.5 -22t-38.5 -40v-307q0 -34 27 -45q14 -6 66 -9v-7h-277v7q28 2 43 7q26 8 26 44v322q-2 35 -26 53q-17 11 -50 13v6l187 11l4 -4v-71h2q62 80 133 80q32 0 53 -21.5t21 -53.5z" />
    <glyph glyph-name="s" unicode="s" horiz-adv-x="406" 
d="M381 134q0 -69 -50.5 -108.5t-128.5 -39.5q-44 0 -85.5 14t-58.5 29l-20 -34h-9l-5 163h8q20 -54 67.5 -108t101.5 -54q44 0 68 25t24 63t-25.5 59.5t-96.5 43.5q-134 41 -134 147q0 58 44.5 97t118.5 39q77 0 124 -27l19 28h9l6 -147h-8q-22 55 -60.5 95.5t-83.5 40.5
q-38 0 -58.5 -24.5t-20.5 -55.5q0 -39 24 -56.5t94 -40.5q66 -21 101 -56t35 -93z" />
    <glyph glyph-name="t" unicode="t" horiz-adv-x="344" 
d="M338 131h11q-5 -61 -40 -101.5t-97 -40.5q-128 0 -128 140v312h-91v16h93v148h112v-148h132v-16h-132v-307q0 -92 69 -92q31 0 49.5 27t21.5 62z" />
    <glyph glyph-name="u" unicode="u" horiz-adv-x="569" 
d="M559 15v-6l-182 -12l-7 7v62h-3q-25 -26 -39.5 -38.5t-46.5 -26t-72 -13.5q-66 0 -97.5 44t-31.5 119v230q-2 37 -26 51q-19 11 -50 13v6l187 12l5 -6v-329q0 -49 19 -74.5t50 -25.5q71 0 104 60v295q-2 36 -24 50q-14 9 -62 11v7l196 12l5 -6v-381q2 -35 24 -49
q15 -10 51 -12z" />
    <glyph glyph-name="v" unicode="v" horiz-adv-x="462" 
d="M487 457v-6q-49 -8 -69 -55q-43 -95 -121 -288q-25 -64 -40 -115h-33l-178 408q-19 44 -66 49v7h247v-9q-62 -2 -62 -21q0 -5 6 -21q111 -263 119 -280l103 255q9 19 7 35q-2 24 -80 35v6h167z" />
    <glyph glyph-name="w" unicode="w" horiz-adv-x="712" 
d="M743 457v-6q-55 -8 -75 -60l-62.5 -157t-49.5 -127q-25 -64 -40 -114h-36l-115 313q-18 -40 -78 -199q-23 -60 -39 -114h-37l-162 407q-17 45 -66 50v7h236v-9q-54 -3 -54 -21q0 -5 6 -21l25.5 -67.5l44.5 -116.5t38 -95l37.5 95t40.5 101q-28 72 -32 80q-15 41 -58 47v7
h231v-8q-59 -3 -59 -22q0 -8 6 -21q2 -5 24 -67.5l44 -121.5t36 -92q63 162 96 255q7 19 7 35q0 24 -77 36v6h168z" />
    <glyph glyph-name="x" unicode="x" horiz-adv-x="480" 
d="M488 8v-8h-243v8q61 5 61 20q0 7 -13 27q-16 31 -89 140q-81 -99 -104 -132q-12 -18 -12 -26q0 -23 70 -30v-7h-164v6q30 7 49 21t38 39l29.5 35l48 57.5l38.5 47.5q-14 20 -66.5 101.5t-63.5 97.5q-29 43 -65 45v7h234v-7q-19 0 -36.5 -4t-18.5 -10q-1 -7 8 -22
q47 -78 86 -135q85 114 90 122q9 14 8 22q-1 13 -58 26q-6 1 -10 2v6h170v-6q-36 -8 -54 -20t-39 -36q-25 -28 -100 -126q17 -24 73.5 -111.5l64.5 -99.5q17 -26 30.5 -37t37.5 -13z" />
    <glyph glyph-name="y" unicode="y" horiz-adv-x="459" 
d="M486 457v-6q-50 -9 -69 -55l-165 -414q-49 -121 -91 -165t-97 -44q-28 0 -54.5 19t-26.5 57q0 25 18 45t46 20q24 0 43 -14.5t19 -43.5q0 -8 -4.5 -34.5t-4.5 -28.5q28 5 59.5 45.5t48.5 76.5t29 69q-29 68 -106.5 235l-84.5 182q-18 41 -68 49v7h244v-9q-60 -3 -60 -21
q0 -3 7 -21q12 -33 126 -277q36 87 98 252q8 24 8 35q0 22 -78 35v6h163z" />
    <glyph glyph-name="z" unicode="z" horiz-adv-x="433" 
d="M417 161v-161h-402v10l269 435h-68q-74 0 -99 -11q-27 -11 -76 -117h-8v140h379v-10l-269 -436q29 -1 79 -1q29 0 85 4q30 2 54 47q24 44 48 100h8z" />
    <glyph glyph-name="braceleft" unicode="{" horiz-adv-x="419" 
d="M390 -169q-115 0 -168.5 35t-53.5 136q0 20 8 64t8 65q0 74 -36.5 99t-116.5 31v53q81 7 117 32t36 98q0 21 -8 65t-8 64q0 101 53.5 136t168.5 35v-7q-26 -1 -42.5 -5.5t-34.5 -17t-26.5 -38.5t-8.5 -67q0 -20 4.5 -60t4.5 -60q0 -41 -10.5 -70.5t-25.5 -47t-42.5 -30
t-49.5 -18t-59 -11.5v-49q37 -6 58.5 -11.5t49.5 -18t43 -29.5t25.5 -47t10.5 -71q0 -20 -4.5 -60t-4.5 -60q0 -41 8.5 -67.5t26.5 -38.5t34.5 -16.5t42.5 -5.5v-7z" />
    <glyph glyph-name="bar" unicode="|" horiz-adv-x="277" 
d="M122 -207v953h34v-953h-34z" />
    <glyph glyph-name="braceright" unicode="}" horiz-adv-x="419" 
d="M28 -169v7q26 1 42.5 5.5t34.5 16.5t26.5 38.5t8.5 67.5q0 20 -4.5 60t-4.5 60q0 41 10.5 71t25.5 47t43 29.5t49.5 18t58.5 11.5v49q-37 6 -59 11.5t-49.5 18t-42.5 30t-25.5 47t-10.5 70.5q0 20 4.5 60t4.5 60q0 41 -8.5 67t-26.5 38.5t-34.5 17t-42.5 5.5v7
q115 0 169 -35t54 -136q0 -20 -8 -64t-8 -65q0 -74 35.5 -98.5t116.5 -31.5v-53q-80 -6 -116 -31t-36 -99q0 -21 8 -65t8 -64q0 -101 -54 -136t-169 -35z" />
    <glyph glyph-name="asciitilde" unicode="~" horiz-adv-x="529" 
d="M60 192l-7 2q15 55 52 95.5t86 40.5q41 0 98 -23t79 -23q37 0 60 14.5t41 47.5l6 -2q-16 -58 -50 -98t-81 -40q-44 0 -99.5 22.5t-77.5 22.5q-75 0 -107 -59z" />
    <glyph glyph-name="nbspace" unicode="&#xa0;" horiz-adv-x="110" 
 />
    <glyph glyph-name="exclamdown" unicode="&#xa1;" horiz-adv-x="324" 
d="M166 472q10 -92 38 -236.5t28 -172.5q0 -31 -19.5 -53.5t-51.5 -22.5t-51.5 22.5t-19.5 53.5q0 25 11.5 87.5l29 155.5t27.5 166h8zM162 698q31 0 52.5 -21t21.5 -52t-21.5 -53t-52.5 -22q-32 0 -53.5 22t-21.5 53t21.5 52t53.5 21z" />
    <glyph glyph-name="cent" unicode="&#xa2;" horiz-adv-x="475" 
d="M161 -113l-15 3l43 182q-69 23 -107 83t-38 148q0 97 63 167.5t166 70.5q11 0 25 -2l31 131l16 -3l-30 -129q54 -10 86 -40.5t32 -70.5q0 -28 -14.5 -44.5t-40.5 -16.5q-22 0 -38.5 13.5t-16.5 39.5q0 25 8.5 48t8.5 29q-4 17 -28 30l-93 -391q28 -31 77 -31q50 0 84 19
t61 66l8 -5q-26 -58 -74 -90.5t-109 -32.5q-30 0 -62 7zM207 150l90 380q-7 2 -21 2q-49 0 -83 -57.5t-34 -163.5q0 -107 48 -161z" />
    <glyph glyph-name="sterling" unicode="&#xa3;" horiz-adv-x="738" 
d="M61 -98q-59 0 -88 24t-29 64q0 47 53.5 80t125.5 33q57 0 140 -23q5 31 1 105h-171v14h170q-5 75 -5 91h-159v15h159q2 176 82 284.5t208 108.5q96 0 148.5 -51t52.5 -117q0 -72 -46.5 -117t-122.5 -45q-55 0 -85.5 33t-30.5 87q0 37 18 83l8 -2q-17 -40 -17 -72
q0 -48 28 -76.5t72 -28.5q48 0 73 34.5t25 98.5q0 71 -30 118t-90 47q-80 0 -121 -71.5t-45 -225.5q0 -50 -5 -88h161v-15h-163q-10 -57 -26 -91h181v-14h-186q-28 -75 -58 -114q23 -8 75.5 -30.5t90.5 -33.5t73 -11q31 0 55.5 9.5t39 23t25 34.5t15 38.5t8.5 41.5l9 -2
q-29 -224 -233 -224q-10 0 -21 1.5t-20.5 2.5t-22 5l-20.5 6.5t-21.5 8l-20 8t-21.5 10t-20 9.5t-21.5 10t-19.5 10q-30 -37 -79.5 -61.5t-98.5 -24.5zM60 -86q46 0 90.5 21.5t76.5 58.5q-100 46 -180 46q-39 0 -62 -16.5t-23 -44.5q0 -27 25.5 -46t72.5 -19z" />
    <glyph glyph-name="currency" unicode="&#xa4;" horiz-adv-x="585" 
d="M354 -14q-105 0 -172.5 66t-80.5 188h-74v15h73q-2 29 0 82h-73v15h76q15 116 90.5 192t191.5 76q79 0 127.5 -36t48.5 -89q0 -38 -16 -57t-38 -19q-25 0 -40 15t-15 38q0 18 16 43t16 39q-4 24 -32.5 40.5t-68.5 16.5q-67 0 -106.5 -68.5t-47.5 -190.5h219v-15h-220
q0 -60 1 -82h187v-15h-186q6 -96 47.5 -156.5t114.5 -60.5q107 0 167 124l10 -6q-33 -73 -83 -114t-132 -41z" />
    <glyph glyph-name="yen" unicode="&#xa5;" horiz-adv-x="574" 
d="M119 0v7q57 3 76 10q14 5 22.5 18t8.5 29v91h-154v15h154v80h-154v15h152q-65 137 -133 257q-24 46 -56 64q-20 12 -52 14v7h296v-7q-82 -5 -82 -27q0 -23 144 -285l29.5 51l31 52.5l27.5 47l25.5 45l19 35.5t14 28.5t4.5 14.5q0 31 -93 38v7h199v-7q-50 -6 -81 -51
q-71 -105 -172 -284h160v-15h-161v-80h161v-15h-161v-86q0 -35 29 -48q24 -11 72 -14v-7h-326z" />
    <glyph glyph-name="brokenbar" unicode="&#xa6;" horiz-adv-x="277" 
d="M122 -207v392h34v-392h-34zM122 363v383h34v-383h-34z" />
    <glyph glyph-name="section" unicode="&#xa7;" horiz-adv-x="532" 
d="M235 -227q-60 0 -95 38t-35 73t17 56.5t49 21.5q23 0 39 -16.5t16 -40.5q0 -22 -19.5 -43t-19.5 -32q0 -21 15 -35t38 -14q37 0 60 31.5t23 80.5q0 33 -15 61t-49 70q-21 27 -62.5 72.5t-67.5 76.5q-39 47 -55.5 81t-16.5 75q0 54 39 89.5t92 45.5q-41 59 -41 126
q0 60 46.5 104t116.5 44q59 0 91.5 -37t32.5 -73t-17.5 -57.5t-49.5 -21.5q-23 0 -38.5 16t-15.5 41q0 18 12 31.5t24 23.5t12 19q0 21 -16 35.5t-45 14.5q-35 0 -59.5 -30t-24.5 -77q0 -23 9 -46t20.5 -39t36.5 -47q23 -29 65.5 -77.5l62.5 -71.5q40 -47 57 -81.5t17 -74.5
q0 -55 -39 -87.5t-96 -44.5q46 -60 46 -132q0 -60 -45.5 -104.5t-114.5 -44.5zM343 63q68 20 68 88q0 47 -47 103l-60.5 71l-65.5 76.5t-44 54.5q-68 -20 -68 -91q0 -44 51 -105l83 -96.5t83 -100.5z" />
    <glyph glyph-name="dieresis" unicode="&#xa8;" 
d="M425 645q0 -28 -19.5 -48t-46.5 -20t-46 19.5t-19 46.5q0 28 19 48t46 20t46.5 -19.5t19.5 -46.5zM206 645q0 -28 -19 -48t-47 -20q-26 0 -45.5 19.5t-19.5 46.5q0 28 19.5 48t45.5 20q27 0 46.5 -19.5t19.5 -46.5z" />
    <glyph glyph-name="copyright" unicode="&#xa9;" horiz-adv-x="950" 
d="M911 251q0 -117 -58 -216.5t-158.5 -157.5t-218.5 -58q-181 0 -309 126.5t-128 305.5q0 116 58 215t159 157t220 58q180 0 307.5 -126.5t127.5 -303.5zM875 251q0 166 -116.5 284t-282.5 118q-167 0 -284 -118t-117 -284q0 -168 117 -286.5t284 -118.5q166 0 282.5 118.5
t116.5 286.5zM661 158l12 -5q-63 -140 -191 -140q-107 0 -173 63.5t-66 170.5q0 104 73 173.5t182 69.5q35 0 71.5 -10.5t51.5 -21.5l25 38h8l4 -180h-9q-11 33 -22.5 57.5t-30 50.5t-44 40t-57.5 14q-59 0 -97.5 -60.5t-38.5 -165.5q0 -95 38 -150.5t112 -55.5
q100 0 152 112z" />
    <glyph glyph-name="ordfeminine" unicode="&#xaa;" horiz-adv-x="359" 
d="M123 332q-37 0 -57 17.5t-20 47.5q0 33 15 49.5t42 27.5q15 6 55 16.5t51 16.5v40q0 64 -44 64q-20 0 -33 -13q0 -4 4 -22t4 -27q0 -12 -10.5 -22t-29.5 -10q-18 0 -27.5 11.5t-9.5 27.5q0 26 34.5 45t71.5 19q53 0 83.5 -17.5t30.5 -70.5q0 -31 -2 -81t-2 -55
q0 -10 6 -20t19 -10q24 0 26 50h9q-4 -83 -68 -83q-46 0 -60 41q-37 -42 -88 -42zM161 360q28 0 45 22l3 115q-42 -15 -63.5 -34t-21.5 -53q0 -24 10.5 -37t26.5 -13zM51 238v25h267v-25h-267z" />
    <glyph glyph-name="guillemotleft" unicode="&#xab;" horiz-adv-x="558" 
d="M286 18l-219 163q-15 11 -19.5 19t-4.5 24t4.5 23.5t17.5 17.5l221 164l4 -4l-142 -203l142 -200zM499 18l-218 163q-15 11 -19.5 18.5t-4.5 24.5q0 16 4 23.5t17 17.5l221 164l5 -4l-142 -203l142 -200z" />
    <glyph glyph-name="logicalnot" unicode="&#xac;" horiz-adv-x="562" 
d="M456 39v213h-414v41h458v-254h-44z" />
    <glyph glyph-name="registered" unicode="&#xae;" horiz-adv-x="474" 
d="M419 521q0 -77 -52.5 -129.5t-129.5 -52.5t-129.5 52.5t-52.5 129.5t52.5 129.5t129.5 52.5t129.5 -52.5t52.5 -129.5zM398 521q0 70 -46 117.5t-115 47.5t-115 -47.5t-46 -117.5t46 -117.5t115 -47.5t115 47.5t46 117.5zM346 465h6q0 -22 -9 -32t-30 -10q-39 0 -45 51
q-2 16 -4.5 24.5t-12 17.5t-25.5 9h-15v-74q0 -11 9 -15q6 -3 20 -3v-7h-98v7q14 0 20 3q9 4 9 15v154q0 12 -9 15q-12 4 -20 4v7h107q27 0 47.5 -11t20.5 -35q0 -39 -62 -52v-3q44 -6 50 -32q2 -7 5 -21.5t5 -22.5q5 -14 15 -14q16 0 16 25zM274 579q0 44 -39 44h-24v-90
h16q47 0 47 46z" />
    <glyph glyph-name="macron" unicode="&#xaf;" 
d="M415 666v-75h-330v75h330z" />
    <glyph glyph-name="macron" unicode="&#x304;" 
d="M415 666v-75h-330v75h330z" />
    <glyph glyph-name="degree" unicode="&#xb0;" horiz-adv-x="384" 
d="M190 414q-65 0 -108 38t-43 107q0 64 45.5 107.5t105.5 43.5q67 0 111 -38.5t44 -111.5q0 -61 -46 -103.5t-109 -42.5zM193 422q34 0 56 40t22 96q0 62 -20 102.5t-60 40.5q-39 0 -59 -40.5t-20 -97.5q0 -59 20 -100t61 -41z" />
    <glyph glyph-name="twosuperior" unicode="&#xb2;" horiz-adv-x="459" 
d="M68 337v26q135 84 188 134q40 39 56 74.5t16 80.5q0 37 -21.5 61t-57.5 24q-51 0 -85.5 -38t-34.5 -79q0 -51 50 -51q47 0 82 56l6 -4q-49 -86 -128 -86q-36 0 -55 18t-19 50q0 50 56 96.5t137 46.5q73 0 116.5 -31.5t43.5 -80.5q0 -62 -50 -104.5t-169 -93.5
q-20 -10 -51 -34h212q13 0 23 5t21.5 19t16 20.5t18.5 28.5l6 -3l-61 -135h-316z" />
    <glyph glyph-name="threesuperior" unicode="&#xb3;" horiz-adv-x="458" 
d="M189 332q-57 0 -100.5 24t-43.5 69q0 27 18.5 45t42.5 18q19 0 30.5 -10.5t11.5 -29.5q0 -15 -11.5 -24.5t-23 -16t-11.5 -15.5q0 -20 23 -35.5t63 -15.5q53 0 93 42t40 95q0 79 -57 79q-27 0 -79 -47l-12 17l46.5 24t38 22.5t33 26.5t18.5 29t8 36q0 32 -18 52t-49 20
q-32 0 -65.5 -26t-33.5 -62q0 -41 39 -41q23 0 56 27l4 -4q-16 -20 -42 -36t-54 -16q-71 0 -71 55q0 43 57 77.5t130 34.5q69 0 101 -25t32 -60q0 -30 -34.5 -56t-101.5 -38q63 2 103.5 -19t40.5 -70q0 -64 -64 -105t-158 -41z" />
    <glyph glyph-name="acute" unicode="&#xb4;" 
d="M363 698q0 -21 -11 -34.5t-39 -31.5q-5 -3 -56 -37t-95 -67l-5 6l36 64l31 55.5t22 37.5q30 51 68 51q22 0 35.5 -13.5t13.5 -30.5z" />
    <glyph glyph-name="mu" unicode="&#xb5;" horiz-adv-x="586" 
d="M96 -226q-18 0 -31 14t-13 37q0 28 11 77.5t12 56.5q5 40 5 104v396h115v-324q0 -48 21.5 -75t55.5 -27q66 0 97 54v372h115v-366q0 -22 11.5 -37t31.5 -15q25 0 38.5 23t16.5 55h9q-4 -68 -31.5 -98t-78.5 -30q-85 0 -110 77h-3q-62 -78 -144 -78q-85 0 -126 72h-2v-60
q0 -34 22.5 -92t22.5 -82q0 -26 -13 -40t-32 -14z" />
    <glyph glyph-name="mu" unicode="&#x3bc;" horiz-adv-x="586" 
d="M96 -226q-18 0 -31 14t-13 37q0 28 11 77.5t12 56.5q5 40 5 104v396h115v-324q0 -48 21.5 -75t55.5 -27q66 0 97 54v372h115v-366q0 -22 11.5 -37t31.5 -15q25 0 38.5 23t16.5 55h9q-4 -68 -31.5 -98t-78.5 -30q-85 0 -110 77h-3q-62 -78 -144 -78q-85 0 -126 72h-2v-60
q0 -34 22.5 -92t22.5 -82q0 -26 -13 -40t-32 -14z" />
    <glyph glyph-name="paragraph" unicode="&#xb6;" horiz-adv-x="617" 
d="M314 -125v447h-30q-64 0 -110 16t-70 43.5t-34.5 56.5t-10.5 61q0 30 10 60t31 59t62 47t95 18h339v-16h-142v-792h-20v792h-100v-792h-20z" />
    <glyph glyph-name="periodcentered" unicode="&#xb7;" horiz-adv-x="259" 
d="M206 273q0 -32 -22.5 -54t-54.5 -22t-54.5 22t-22.5 54t22.5 54.5t54.5 22.5t54.5 -22.5t22.5 -54.5z" />
    <glyph glyph-name="periodcentered" unicode="&#x2219;" horiz-adv-x="259" 
d="M206 273q0 -32 -22.5 -54t-54.5 -22t-54.5 22t-22.5 54t22.5 54.5t54.5 22.5t54.5 -22.5t22.5 -54.5z" />
    <glyph glyph-name="cedilla" unicode="&#xb8;" 
d="M355 -133q0 -31 -16 -52t-48.5 -31t-67 -13.5t-83.5 -3.5v14q29 0 48.5 2t41.5 8t33.5 19.5t11.5 34.5q0 40 -72 40v115h13v-51q139 2 139 -82z" />
    <glyph glyph-name="onesuperior" unicode="&#xb9;" horiz-adv-x="345" 
d="M44 339v7q57 4 70 7q24 7 24 32v317q-12 -3 -31 -3q-46 0 -89 33l2 4q46 -16 80 -16q69 0 127 29h6q-9 -37 -9 -102v-260q0 -21 23 -31q19 -6 68 -10v-7h-271z" />
    <glyph glyph-name="ordmasculine" unicode="&#xba;" horiz-adv-x="367" 
d="M181 329q-58 0 -101 39t-43 107q0 65 42.5 105t104.5 40q64 0 105 -39.5t41 -103.5q0 -65 -41.5 -106.5t-107.5 -41.5zM184 338q64 0 64 139q0 134 -64 134q-25 0 -40 -22.5t-20 -50t-5 -60.5q0 -140 65 -140zM50 238v25h267v-25h-267z" />
    <glyph glyph-name="guillemotright" unicode="&#xbb;" horiz-adv-x="558" 
d="M59 18l-5 4l142 200l-142 203l5 4q35 -28 120.5 -90.5t99.5 -73.5q13 -10 17.5 -17.5t4.5 -23.5q0 -17 -4.5 -24.5t-19.5 -18.5zM272 18l-3 4l141 200l-141 203l3 4l221 -164q13 -10 17.5 -17.5t4.5 -23.5t-4.5 -24t-19.5 -19z" />
    <glyph glyph-name="onequarter" unicode="&#xbc;" horiz-adv-x="566" 
d="M224 -227v6q40 3 50 6q21 6 21 30v90h-212v25l256 254h37v-247q72 0 85 9q20 15 20 49h6v-151h-6q-2 39 -21 54q-9 7 -84 7v-86q0 -24 20 -31q17 -7 50 -9v-6h-222zM41 244v29h483v-29h-483zM107 -63h188v187zM153 339v7q57 4 70 7q24 7 24 32v317q-12 -3 -31 -3
q-46 0 -89 33l2 4q46 -16 80 -16q69 0 127 29h6q-9 -37 -9 -102v-260q0 -21 23 -31q19 -6 68 -10v-7h-271z" />
    <glyph glyph-name="onehalf" unicode="&#xbd;" horiz-adv-x="566" 
d="M116 -227v26q138 86 188 134q41 39 56.5 74.5t15.5 80.5q0 38 -21 61.5t-57 23.5q-51 0 -86 -38t-35 -79q0 -51 50 -51q47 0 82 56l6 -4q-50 -87 -128 -87q-35 0 -54.5 18.5t-19.5 50.5q0 50 56.5 96.5t137.5 46.5q72 0 115.5 -31.5t43.5 -80.5q0 -62 -49.5 -104.5
t-168.5 -93.5q-7 -3 -26.5 -16t-25.5 -18h213q13 0 23 5t21.5 19t16 20.5t18.5 28.5l5 -3l-61 -135h-316zM41 244v29h483v-29h-483zM153 339v7q57 4 70 7q24 7 24 32v317q-12 -3 -31 -3q-46 0 -89 33l2 4q46 -16 80 -16q69 0 127 29h6q-9 -37 -9 -102v-260q0 -21 23 -31
q19 -6 68 -10v-7h-271z" />
    <glyph glyph-name="threequarters" unicode="&#xbe;" horiz-adv-x="566" 
d="M237 332q-57 0 -101 24t-44 69q0 27 18.5 45t42.5 18q20 0 31 -10.5t11 -29.5q0 -15 -11.5 -24.5t-23 -16t-11.5 -15.5q0 -20 23.5 -36t62.5 -16q53 0 93 42.5t40 95.5q0 34 -14 57t-44 23q-25 0 -78 -48l-11 17q38 19 57.5 30t43 28.5t33 36.5t9.5 43q0 32 -18 52
t-49 20q-32 0 -65 -26t-33 -62q0 -41 38 -41q23 0 56 27l3 -4q-41 -52 -95 -52q-71 0 -71 55q0 43 57 77.5t131 34.5q68 0 100.5 -25t32.5 -60q0 -30 -35 -56t-103 -38q64 2 105 -19t41 -70q0 -64 -64.5 -105t-157.5 -41zM224 -227v6q40 3 50 6q21 6 21 30v90h-212v25
l256 254h37v-247q72 0 85 9q20 15 20 49h6v-151h-6q-2 39 -21 54q-9 7 -84 7v-86q0 -24 20 -31q17 -7 50 -9v-6h-222zM41 244v29h483v-29h-483zM107 -63h188v187z" />
    <glyph glyph-name="questiondown" unicode="&#xbf;" horiz-adv-x="492" 
d="M60 186q0 91 65.5 151t176.5 67l6 90h11l1 -186q-73 -9 -110.5 -44t-37.5 -107q0 -78 28.5 -118t80.5 -40q22 0 43.5 8.5t30.5 19.5q-1 3 -8 19t-10.5 29.5t-3.5 30.5q0 30 20 48t46 18q32 0 48 -19t16 -50q0 -45 -53 -80t-133 -35q-101 0 -159 54t-58 144zM233 624
q0 31 22 53t54 22t54 -22t22 -53q0 -32 -22.5 -54t-53.5 -22t-53.5 22t-22.5 54z" />
    <glyph glyph-name="Agrave" unicode="&#xc0;" horiz-adv-x="681" 
d="M710 7v-7h-340v7q103 6 106 34q2 13 -4 24l-69 183h-237q-40 -103 -52 -139q-14 -48 -14 -61q0 -34 121 -41v-7h-250v7q38 2 59 15q32 20 57 79l243 593h35l247 -624q14 -36 40 -50q21 -11 58 -13zM172 264h224l-110 282zM426 730l-5 -5l-63 44.5l-55 37l-34 22.5
q-27 19 -38 32t-11 34q0 17 13.5 30.5t35.5 13.5q21 0 36.5 -12t31.5 -39q12 -20 41 -72.5z" />
    <glyph glyph-name="Aacute" unicode="&#xc1;" horiz-adv-x="681" 
d="M710 7v-7h-340v7q103 6 106 34q2 13 -4 24l-69 183h-237q-40 -103 -52 -139q-14 -48 -14 -61q0 -34 121 -41v-7h-250v7q38 2 59 15q32 20 57 79l243 593h35l247 -624q14 -36 40 -50q21 -11 58 -13zM172 264h224l-110 282zM454 895q0 -21 -11 -34.5t-39 -31.5
q-5 -3 -56 -37t-95 -67l-5 6l36 64l31 55.5t22 37.5q30 51 68 51q22 0 35.5 -13.5t13.5 -30.5z" />
    <glyph glyph-name="Acircumflex" unicode="&#xc2;" horiz-adv-x="681" 
d="M710 7v-7h-340v7q103 6 106 34q2 13 -4 24l-69 183h-237q-40 -103 -52 -139q-14 -48 -14 -61q0 -34 121 -41v-7h-250v7q38 2 59 15q32 20 57 79l243 593h35l247 -624q14 -36 40 -50q21 -11 58 -13zM172 264h224l-110 282zM502 741l-9 -7l-153 122l-152 -122l-8 7l112 175
q8 13 17.5 17t32.5 4q22 0 30.5 -4t16.5 -15q15 -22 113 -177z" />
    <glyph glyph-name="Atilde" unicode="&#xc3;" horiz-adv-x="681" 
d="M710 7v-7h-340v7q103 6 106 34q2 13 -4 24l-69 183h-237q-40 -103 -52 -139q-14 -48 -14 -61q0 -34 121 -41v-7h-250v7q38 2 59 15q32 20 57 79l243 593h35l247 -624q14 -36 40 -50q21 -11 58 -13zM172 264h224l-110 282zM530 897l11 -3q-13 -47 -49 -90t-84 -43
q-41 0 -90 27t-73 27q-52 0 -86 -64l-11 4q17 49 50.5 90.5t79.5 41.5q40 0 91.5 -27.5t74.5 -27.5q58 0 86 65z" />
    <glyph glyph-name="Adieresis" unicode="&#xc4;" horiz-adv-x="681" 
d="M710 7v-7h-340v7q103 6 106 34q2 13 -4 24l-69 183h-237q-40 -103 -52 -139q-14 -48 -14 -61q0 -34 121 -41v-7h-250v7q38 2 59 15q32 20 57 79l243 593h35l247 -624q14 -36 40 -50q21 -11 58 -13zM172 264h224l-110 282zM519 832q0 -28 -19.5 -48t-46.5 -20t-46 19.5
t-19 46.5q0 28 19 48t46 20t46.5 -19.5t19.5 -46.5zM300 832q0 -28 -19 -48t-47 -20q-26 0 -45.5 19.5t-19.5 46.5q0 28 19.5 48t45.5 20q27 0 46.5 -19.5t19.5 -46.5z" />
    <glyph glyph-name="Aring" unicode="&#xc5;" horiz-adv-x="681" 
d="M710 7v-7h-340v7q103 6 106 34q2 13 -4 24l-69 183h-237q-40 -103 -52 -139q-14 -48 -14 -61q0 -34 121 -41v-7h-250v7q38 2 59 15q32 20 57 79l243 593h35l247 -624q14 -36 40 -50q21 -11 58 -13zM172 264h224l-110 282zM465 827q0 -45 -33 -73.5t-87 -28.5
q-55 0 -87.5 28t-32.5 74q0 45 34.5 73.5t85.5 28.5q52 0 86 -28t34 -74zM404 827q0 37 -14.5 64t-44.5 27t-44.5 -26.5t-14.5 -64.5q0 -37 14.5 -63.5t44.5 -26.5t44.5 26t14.5 64z" />
    <glyph glyph-name="AE" unicode="&#xc6;" horiz-adv-x="989" 
d="M-30 0v7q40 2 69 19q34 17 85 104l146.5 251l162.5 284q-14 5 -100 10v8h590v-166h-10q-11 40 -51.5 93t-72.5 57q-40 5 -95 5h-97v-312h84q55 0 86 31q12 12 25.5 45.5t16.5 55.5h9v-281h-9q-2 22 -16.5 58.5t-25.5 47.5q-29 31 -86 31h-84v-248q0 -58 20 -73t93 -15
q45 0 65.5 0.5t49 6t39.5 16.5q24 24 56.5 79t45.5 86h9l-13 -200h-604v7q46 2 74 10q31 12 31 48v219h-230l-94 -167q-19 -36 -19 -62q0 -42 116 -47v-8h-266zM242 300h221v364h-13z" />
    <glyph glyph-name="Ccedilla" unicode="&#xc7;" horiz-adv-x="653" 
d="M264 -235v13q28 0 48 2t42 8t33.5 19.5t11.5 34.5q0 40 -73 40v105q-132 12 -214 105t-82 241q0 158 100.5 261.5t253.5 103.5q111 0 185 -52l33 47h10l4 -251h-10q-35 111 -94.5 176.5t-139.5 65.5q-92 0 -142 -89.5t-50 -248.5q0 -149 56.5 -236.5t162.5 -87.5
q153 0 231 160l13 -6q-36 -84 -104.5 -137.5t-172.5 -53.5q-5 0 -13.5 0.5t-12.5 0.5v-40q139 2 139 -81q0 -31 -16 -52t-48.5 -31t-67 -13.5t-83.5 -3.5z" />
    <glyph glyph-name="Egrave" unicode="&#xc8;" horiz-adv-x="661" 
d="M634 0h-605v7q50 2 75 11q31 10 31 47v548q0 39 -31 50q-28 11 -75 13v7h565v-166h-10q-11 40 -51.5 93t-72.5 57q-40 5 -94 5h-98v-312h84q57 0 86 31q12 12 25.5 45.5t16.5 55.5h10v-281h-10q-2 22 -16.5 58.5t-25.5 47.5q-27 31 -86 31h-84v-248q0 -58 20 -73t93 -15
q45 0 65.5 0.5t49 6t39.5 16.5q23 24 55.5 78.5t47.5 86.5h9zM431 730l-5 -5l-63 44.5l-55 37l-34 22.5q-27 19 -38 32t-11 34q0 17 13.5 30.5t35.5 13.5q21 0 36.5 -12t31.5 -39q12 -20 41 -72.5z" />
    <glyph glyph-name="Eacute" unicode="&#xc9;" horiz-adv-x="661" 
d="M500 895q0 -21 -11 -34.5t-39 -31.5q-5 -3 -56 -37t-95 -67l-5 6l36 64l31 55.5t22 37.5q30 51 68 51q22 0 35.5 -13.5t13.5 -30.5zM634 0h-605v7q50 2 75 11q31 10 31 47v548q0 39 -31 50q-28 11 -75 13v7h565v-166h-10q-11 40 -51.5 93t-72.5 57q-40 5 -94 5h-98v-312
h84q57 0 86 31q12 12 25.5 45.5t16.5 55.5h10v-281h-10q-2 22 -16.5 58.5t-25.5 47.5q-27 31 -86 31h-84v-248q0 -58 20 -73t93 -15q45 0 65.5 0.5t49 6t39.5 16.5q23 24 55.5 78.5t47.5 86.5h9z" />
    <glyph glyph-name="Ecircumflex" unicode="&#xca;" horiz-adv-x="661" 
d="M496 741l-9 -7l-153 122l-152 -122l-8 7l112 175q8 13 17.5 17t32.5 4q22 0 30.5 -4t16.5 -15q15 -22 113 -177zM634 0h-605v7q50 2 75 11q31 10 31 47v548q0 39 -31 50q-28 11 -75 13v7h565v-166h-10q-11 40 -51.5 93t-72.5 57q-40 5 -94 5h-98v-312h84q57 0 86 31
q12 12 25.5 45.5t16.5 55.5h10v-281h-10q-2 22 -16.5 58.5t-25.5 47.5q-27 31 -86 31h-84v-248q0 -58 20 -73t93 -15q45 0 65.5 0.5t49 6t39.5 16.5q23 24 55.5 78.5t47.5 86.5h9z" />
    <glyph glyph-name="Edieresis" unicode="&#xcb;" horiz-adv-x="661" 
d="M508 832q0 -28 -19.5 -48t-46.5 -20t-46 19.5t-19 46.5q0 28 19 48t46 20t46.5 -19.5t19.5 -46.5zM289 832q0 -28 -19 -48t-47 -20q-26 0 -45.5 19.5t-19.5 46.5q0 28 19.5 48t45.5 20q27 0 46.5 -19.5t19.5 -46.5zM634 0h-605v7q50 2 75 11q31 10 31 47v548q0 39 -31 50
q-28 11 -75 13v7h565v-166h-10q-11 40 -51.5 93t-72.5 57q-40 5 -94 5h-98v-312h84q57 0 86 31q12 12 25.5 45.5t16.5 55.5h10v-281h-10q-2 22 -16.5 58.5t-25.5 47.5q-27 31 -86 31h-84v-248q0 -58 20 -73t93 -15q45 0 65.5 0.5t49 6t39.5 16.5q23 24 55.5 78.5t47.5 86.5
h9z" />
    <glyph glyph-name="Igrave" unicode="&#xcc;" horiz-adv-x="406" 
d="M270 616v-548q0 -38 31 -50q21 -9 72 -11v-7h-339v7q52 2 72 10q31 10 31 47v549q0 38 -31 50q-31 11 -72 13v7h339v-7q-43 -2 -72 -11q-31 -10 -31 -49zM286 730l-5 -5l-63 44.5l-55 37l-34 22.5q-27 19 -38 32t-11 34q0 17 13.5 30.5t35.5 13.5q21 0 36.5 -12t31.5 -39
q12 -20 41 -72.5z" />
    <glyph glyph-name="Iacute" unicode="&#xcd;" horiz-adv-x="406" 
d="M270 616v-548q0 -38 31 -50q21 -9 72 -11v-7h-339v7q52 2 72 10q31 10 31 47v549q0 38 -31 50q-31 11 -72 13v7h339v-7q-43 -2 -72 -11q-31 -10 -31 -49zM331 895q0 -21 -11 -34.5t-39 -31.5q-5 -3 -56 -37t-95 -67l-5 6l36 64l31 55.5t22 37.5q30 51 68 51
q22 0 35.5 -13.5t13.5 -30.5z" />
    <glyph glyph-name="Icircumflex" unicode="&#xce;" horiz-adv-x="406" 
d="M270 616v-548q0 -38 31 -50q21 -9 72 -11v-7h-339v7q52 2 72 10q31 10 31 47v549q0 38 -31 50q-31 11 -72 13v7h339v-7q-43 -2 -72 -11q-31 -10 -31 -49zM364 741l-9 -7l-153 122l-152 -122l-8 7l112 175q8 13 17.5 17t32.5 4q22 0 30.5 -4t16.5 -15q15 -22 113 -177z
" />
    <glyph glyph-name="Idieresis" unicode="&#xcf;" horiz-adv-x="406" 
d="M270 616v-548q0 -38 31 -50q21 -9 72 -11v-7h-339v7q52 2 72 10q31 10 31 47v549q0 38 -31 50q-31 11 -72 13v7h339v-7q-43 -2 -72 -11q-31 -10 -31 -49zM378 832q0 -28 -19.5 -48t-46.5 -20t-46 19.5t-19 46.5q0 28 19 48t46 20t46.5 -19.5t19.5 -46.5zM159 832
q0 -28 -19 -48t-47 -20q-26 0 -45.5 19.5t-19.5 46.5q0 28 19.5 48t45.5 20q27 0 46.5 -19.5t19.5 -46.5z" />
    <glyph glyph-name="Eth" unicode="&#xd0;" horiz-adv-x="770" 
d="M32 0v7q52 2 72 10q31 10 31 47v284h-92v24h92v241q0 39 -31 51q-25 10 -70 12v7h331q46 0 93.5 -9.5t99.5 -34t91.5 -62t65.5 -100t26 -140.5q0 -84 -33.5 -150.5t-89.5 -106t-125 -60t-145 -20.5h-316zM364 12q114 0 169.5 87t55.5 239q0 149 -66.5 241.5t-178.5 92.5
q-36 0 -76 -2v-298h137v-24h-137v-265q5 -71 96 -71z" />
    <glyph glyph-name="Ntilde" unicode="&#xd1;" horiz-adv-x="754" 
d="M762 683v-7q-74 -9 -92 -22q-32 -23 -32 -143v-516h-30l-460 584v-410q0 -113 33 -138q12 -10 44.5 -16.5t53.5 -7.5v-7h-271v7q74 9 92 22q32 25 32 137v395q0 52 -34 83q-25 22 -98 31v8h228l394 -498v325q0 116 -34 144q-23 18 -98 22v7h272zM586 897l11 -3
q-13 -47 -49 -90t-84 -43q-41 0 -90 27t-73 27q-52 0 -86 -64l-11 4q17 49 50.5 90.5t79.5 41.5q40 0 91.5 -27.5t74.5 -27.5q58 0 86 65z" />
    <glyph glyph-name="Ograve" unicode="&#xd2;" horiz-adv-x="768" 
d="M737 346q0 -171 -108 -270q-97 -92 -249 -92q-144 0 -244 94q-106 99 -106 256q0 168 105 268q102 97 249 97q150 0 251 -97q102 -97 102 -256zM586 343q0 69 -10.5 128t-33.5 109t-63.5 78.5t-94.5 28.5q-96 0 -149 -92t-53 -256q0 -152 50.5 -247.5t151.5 -95.5
t151.5 95.5t50.5 251.5zM476 730l-5 -5l-63 44.5l-55 37l-34 22.5q-27 19 -38 32t-11 34q0 17 13.5 30.5t35.5 13.5q21 0 36.5 -12t31.5 -39q12 -20 41 -72.5z" />
    <glyph glyph-name="Oacute" unicode="&#xd3;" horiz-adv-x="768" 
d="M494 895q0 -21 -11 -34.5t-39 -31.5q-5 -3 -56 -37t-95 -67l-5 6l36 64l31 55.5t22 37.5q30 51 68 51q22 0 35.5 -13.5t13.5 -30.5zM737 346q0 -171 -108 -270q-97 -92 -249 -92q-144 0 -244 94q-106 99 -106 256q0 168 105 268q102 97 249 97q150 0 251 -97
q102 -97 102 -256zM586 343q0 69 -10.5 128t-33.5 109t-63.5 78.5t-94.5 28.5q-96 0 -149 -92t-53 -256q0 -152 50.5 -247.5t151.5 -95.5t151.5 95.5t50.5 251.5z" />
    <glyph glyph-name="Ocircumflex" unicode="&#xd4;" horiz-adv-x="768" 
d="M545 741l-9 -7l-153 122l-152 -122l-8 7l112 175q8 13 17.5 17t32.5 4q22 0 30.5 -4t16.5 -15q15 -22 113 -177zM737 346q0 -171 -108 -270q-97 -92 -249 -92q-144 0 -244 94q-106 99 -106 256q0 168 105 268q102 97 249 97q150 0 251 -97q102 -97 102 -256zM586 343
q0 69 -10.5 128t-33.5 109t-63.5 78.5t-94.5 28.5q-96 0 -149 -92t-53 -256q0 -152 50.5 -247.5t151.5 -95.5t151.5 95.5t50.5 251.5z" />
    <glyph glyph-name="Otilde" unicode="&#xd5;" horiz-adv-x="768" 
d="M737 346q0 -171 -108 -270q-97 -92 -249 -92q-144 0 -244 94q-106 99 -106 256q0 168 105 268q102 97 249 97q150 0 251 -97q102 -97 102 -256zM586 343q0 69 -10.5 128t-33.5 109t-63.5 78.5t-94.5 28.5q-96 0 -149 -92t-53 -256q0 -152 50.5 -247.5t151.5 -95.5
t151.5 95.5t50.5 251.5zM569 897l11 -3q-13 -47 -49 -90t-84 -43q-41 0 -90 27t-73 27q-52 0 -86 -64l-11 4q17 49 50.5 90.5t79.5 41.5q40 0 91.5 -27.5t74.5 -27.5q58 0 86 65z" />
    <glyph glyph-name="Odieresis" unicode="&#xd6;" horiz-adv-x="768" 
d="M559 832q0 -28 -19.5 -48t-46.5 -20t-46 19.5t-19 46.5q0 28 19 48t46 20t46.5 -19.5t19.5 -46.5zM340 832q0 -28 -19 -48t-47 -20q-26 0 -45.5 19.5t-19.5 46.5q0 28 19.5 48t45.5 20q27 0 46.5 -19.5t19.5 -46.5zM737 346q0 -171 -108 -270q-97 -92 -249 -92
q-144 0 -244 94q-106 99 -106 256q0 168 105 268q102 97 249 97q150 0 251 -97q102 -97 102 -256zM586 343q0 69 -10.5 128t-33.5 109t-63.5 78.5t-94.5 28.5q-96 0 -149 -92t-53 -256q0 -152 50.5 -247.5t151.5 -95.5t151.5 95.5t50.5 251.5z" />
    <glyph glyph-name="multiply" unicode="&#xd7;" horiz-adv-x="562" 
d="M88 39l-27 27l194 192l-191 191l29 29l190 -190l190 190l26 -27l-190 -190l192 -191l-28 -30l-193 192z" />
    <glyph glyph-name="Oslash" unicode="&#xd8;" horiz-adv-x="768" 
d="M48 -33l-12 10l96 104q-102 99 -102 253q0 168 105 268q102 97 249 97q140 0 239 -86l90 97l12 -9l-91 -98q103 -100 103 -257q0 -171 -108 -270q-97 -92 -249 -92q-138 0 -236 87zM384 -4q101 0 151.5 95.5t50.5 251.5q0 106 -25 181l-350 -380q51 -148 173 -148z
M206 161l350 380q-49 146 -172 146q-96 0 -149 -92t-53 -256q0 -106 24 -178z" />
    <glyph glyph-name="Ugrave" unicode="&#xd9;" horiz-adv-x="774" 
d="M775 683v-7q-66 -3 -92 -22q-32 -22 -32 -133v-309q0 -58 -23 -103.5t-60.5 -72t-81.5 -39.5t-90 -13q-131 0 -202.5 61t-71.5 157v412q0 34 -31 50q-17 9 -69 12v7h336v-7q-41 -2 -71 -11q-31 -10 -31 -49v-412q0 -182 171 -182q98 0 153 55t55 139v301q0 110 -34 135
q-30 21 -97 24v7h271zM505 730l-5 -5l-63 44.5l-55 37l-34 22.5q-27 19 -38 32t-11 34q0 17 13.5 30.5t35.5 13.5q21 0 36.5 -12t31.5 -39q12 -20 41 -72.5z" />
    <glyph glyph-name="Uacute" unicode="&#xda;" horiz-adv-x="774" 
d="M548 895q0 -21 -11 -34.5t-39 -31.5q-5 -3 -56 -37t-95 -67l-5 6l36 64l31 55.5t22 37.5q30 51 68 51q22 0 35.5 -13.5t13.5 -30.5zM775 683v-7q-66 -3 -92 -22q-32 -22 -32 -133v-309q0 -58 -23 -103.5t-60.5 -72t-81.5 -39.5t-90 -13q-131 0 -202.5 61t-71.5 157v412
q0 34 -31 50q-17 9 -69 12v7h336v-7q-41 -2 -71 -11q-31 -10 -31 -49v-412q0 -182 171 -182q98 0 153 55t55 139v301q0 110 -34 135q-30 21 -97 24v7h271z" />
    <glyph glyph-name="Ucircumflex" unicode="&#xdb;" horiz-adv-x="774" 
d="M584 741l-9 -7l-153 122l-152 -122l-8 7l112 175q8 13 17.5 17t32.5 4q22 0 30.5 -4t16.5 -15q15 -22 113 -177zM775 683v-7q-66 -3 -92 -22q-32 -22 -32 -133v-309q0 -58 -23 -103.5t-60.5 -72t-81.5 -39.5t-90 -13q-131 0 -202.5 61t-71.5 157v412q0 34 -31 50
q-17 9 -69 12v7h336v-7q-41 -2 -71 -11q-31 -10 -31 -49v-412q0 -182 171 -182q98 0 153 55t55 139v301q0 110 -34 135q-30 21 -97 24v7h271z" />
    <glyph glyph-name="Udieresis" unicode="&#xdc;" horiz-adv-x="774" 
d="M602 832q0 -28 -19.5 -48t-46.5 -20t-46 19.5t-19 46.5q0 28 19 48t46 20t46.5 -19.5t19.5 -46.5zM383 832q0 -28 -19 -48t-47 -20q-26 0 -45.5 19.5t-19.5 46.5q0 28 19.5 48t45.5 20q27 0 46.5 -19.5t19.5 -46.5zM775 683v-7q-66 -3 -92 -22q-32 -22 -32 -133v-309
q0 -58 -23 -103.5t-60.5 -72t-81.5 -39.5t-90 -13q-131 0 -202.5 61t-71.5 157v412q0 34 -31 50q-17 9 -69 12v7h336v-7q-41 -2 -71 -11q-31 -10 -31 -49v-412q0 -182 171 -182q98 0 153 55t55 139v301q0 110 -34 135q-30 21 -97 24v7h271z" />
    <glyph glyph-name="Yacute" unicode="&#xdd;" horiz-adv-x="657" 
d="M683 683v-7q-30 -4 -48 -14q-33 -18 -60 -62q-57 -88 -150 -257q-21 -39 -26.5 -63t-5.5 -67v-144q0 -36 30 -50q20 -8 81 -12v-7h-357v7q64 4 81 10q31 12 31 50v174q0 37 -28 90q-70 136 -143 260q-31 52 -62 70q-24 13 -60 15v7h353v-7q-104 -6 -104 -31q0 -14 46 -99
q1 -2 51.5 -95t76.5 -137l125 219q46 84 46 101q0 35 -111 42v7h234zM508 895q0 -21 -11 -34.5t-39 -31.5q-5 -3 -56 -37t-95 -67l-5 6l36 64l31 55.5t22 37.5q30 51 68 51q22 0 35.5 -13.5t13.5 -30.5z" />
    <glyph glyph-name="Thorn" unicode="&#xde;" horiz-adv-x="625" 
d="M30 0v7q53 3 74 11q31 12 31 49v546q0 39 -31 50q-32 11 -76 13v7h343v-7q-50 -3 -72 -10q-31 -10 -31 -47v-84h110q106 0 167.5 -43t61.5 -123q0 -100 -81 -155t-194 -55h-64v-91q0 -38 31 -50q21 -9 79 -11v-7h-348zM268 173h35q45 0 77.5 17t48.5 45t22.5 55t6.5 55
q0 48 -11.5 85.5t-43.5 64.5t-83 27h-52v-349z" />
    <glyph glyph-name="germandbls" unicode="&#xdf;" horiz-adv-x="606" 
d="M414 -14q-70 0 -106 29.5t-36 73.5q0 29 14 48.5t41 19.5q25 0 37.5 -15t12.5 -38q0 -14 -10.5 -33.5t-10.5 -28.5q0 -17 16.5 -31.5t45.5 -14.5q37 0 60 27.5t23 64.5q0 35 -20 63t-80 68q-53 33 -81 64.5t-28 71.5q0 26 10 44.5t36.5 46.5t35.5 39q30 38 30 106
q0 69 -24.5 107.5t-67.5 38.5q-53 0 -77 -49.5t-26 -164.5v-523h-185v7q28 2 43 7q27 9 27 45v380h-97v16h97v26q0 128 67 201q61 65 166 65q70 0 119 -35.5t49 -94.5q0 -79 -68 -121q-10 -7 -27.5 -17t-26 -15.5t-15.5 -14t-7 -18.5q0 -20 26 -45t96 -74q62 -42 85.5 -77
t23.5 -90q0 -68 -48 -113.5t-120 -45.5z" />
    <glyph glyph-name="agrave" unicode="&#xe0;" horiz-adv-x="496" 
d="M499 125h11q-6 -136 -113 -136q-73 0 -101 66h-3q-59 -68 -145 -68q-52 0 -85.5 30.5t-33.5 78.5q0 57 25.5 83.5t72.5 44.5q19 7 83 27t84 31v69q0 109 -72 109q-40 0 -59 -24q0 -10 8 -39.5t8 -43.5q0 -18 -19.5 -34t-49.5 -16q-29 0 -43 17.5t-14 42.5q0 44 56 75.5
t119 31.5q44 0 73 -5t56.5 -19.5t40.5 -45.5t13 -79q0 -52 -3 -139.5t-3 -96.5q0 -15 11.5 -32t30.5 -17q23 0 36.5 25.5t15.5 63.5zM291 71l4 196q-75 -26 -109.5 -57.5t-34.5 -92.5q0 -87 60 -87q51 0 80 41zM332 533l-5 -5l-63 44.5l-55 37l-34 22.5q-27 19 -38 32
t-11 34q0 17 13.5 30.5t35.5 13.5q21 0 36.5 -12t31.5 -39q12 -20 41 -72.5z" />
    <glyph glyph-name="aacute" unicode="&#xe1;" horiz-adv-x="496" 
d="M499 125h11q-6 -136 -113 -136q-73 0 -101 66h-3q-59 -68 -145 -68q-52 0 -85.5 30.5t-33.5 78.5q0 57 25.5 83.5t72.5 44.5q19 7 83 27t84 31v69q0 109 -72 109q-40 0 -59 -24q0 -10 8 -39.5t8 -43.5q0 -18 -19.5 -34t-49.5 -16q-29 0 -43 17.5t-14 42.5q0 44 56 75.5
t119 31.5q44 0 73 -5t56.5 -19.5t40.5 -45.5t13 -79q0 -52 -3 -139.5t-3 -96.5q0 -15 11.5 -32t30.5 -17q23 0 36.5 25.5t15.5 63.5zM291 71l4 196q-75 -26 -109.5 -57.5t-34.5 -92.5q0 -87 60 -87q51 0 80 41zM366 698q0 -21 -11 -34.5t-39 -31.5q-5 -3 -56 -37t-95 -67
l-5 6l36 64l31 55.5t22 37.5q30 51 68 51q22 0 35.5 -13.5t13.5 -30.5z" />
    <glyph glyph-name="acircumflex" unicode="&#xe2;" horiz-adv-x="496" 
d="M499 125h11q-6 -136 -113 -136q-73 0 -101 66h-3q-59 -68 -145 -68q-52 0 -85.5 30.5t-33.5 78.5q0 57 25.5 83.5t72.5 44.5q19 7 83 27t84 31v69q0 109 -72 109q-40 0 -59 -24q0 -10 8 -39.5t8 -43.5q0 -18 -19.5 -34t-49.5 -16q-29 0 -43 17.5t-14 42.5q0 44 56 75.5
t119 31.5q44 0 73 -5t56.5 -19.5t40.5 -45.5t13 -79q0 -52 -3 -139.5t-3 -96.5q0 -15 11.5 -32t30.5 -17q23 0 36.5 25.5t15.5 63.5zM291 71l4 196q-75 -26 -109.5 -57.5t-34.5 -92.5q0 -87 60 -87q51 0 80 41zM401 544l-9 -7l-153 122l-152 -122l-8 7l112 175q8 13 17.5 17
t32.5 4q22 0 30.5 -4t16.5 -15q15 -22 113 -177z" />
    <glyph glyph-name="atilde" unicode="&#xe3;" horiz-adv-x="496" 
d="M499 125h11q-6 -136 -113 -136q-73 0 -101 66h-3q-59 -68 -145 -68q-52 0 -85.5 30.5t-33.5 78.5q0 57 25.5 83.5t72.5 44.5q19 7 83 27t84 31v69q0 109 -72 109q-40 0 -59 -24q0 -10 8 -39.5t8 -43.5q0 -18 -19.5 -34t-49.5 -16q-29 0 -43 17.5t-14 42.5q0 44 56 75.5
t119 31.5q44 0 73 -5t56.5 -19.5t40.5 -45.5t13 -79q0 -52 -3 -139.5t-3 -96.5q0 -15 11.5 -32t30.5 -17q23 0 36.5 25.5t15.5 63.5zM291 71l4 196q-75 -26 -109.5 -57.5t-34.5 -92.5q0 -87 60 -87q51 0 80 41zM432 700l11 -3q-13 -47 -49 -90t-84 -43q-41 0 -90 27t-73 27
q-52 0 -86 -64l-11 4q17 49 50.5 90.5t79.5 41.5q40 0 91.5 -27.5t74.5 -27.5q58 0 86 65z" />
    <glyph glyph-name="adieresis" unicode="&#xe4;" horiz-adv-x="496" 
d="M499 125h11q-6 -136 -113 -136q-73 0 -101 66h-3q-59 -68 -145 -68q-52 0 -85.5 30.5t-33.5 78.5q0 57 25.5 83.5t72.5 44.5q19 7 83 27t84 31v69q0 109 -72 109q-40 0 -59 -24q0 -10 8 -39.5t8 -43.5q0 -18 -19.5 -34t-49.5 -16q-29 0 -43 17.5t-14 42.5q0 44 56 75.5
t119 31.5q44 0 73 -5t56.5 -19.5t40.5 -45.5t13 -79q0 -52 -3 -139.5t-3 -96.5q0 -15 11.5 -32t30.5 -17q23 0 36.5 25.5t15.5 63.5zM291 71l4 196q-75 -26 -109.5 -57.5t-34.5 -92.5q0 -87 60 -87q51 0 80 41zM414 622q0 -28 -19.5 -48t-46.5 -20t-46 19.5t-19 46.5
q0 28 19 48t46 20t46.5 -19.5t19.5 -46.5zM195 622q0 -28 -19 -48t-47 -20q-26 0 -45.5 19.5t-19.5 46.5q0 28 19.5 48t45.5 20q27 0 46.5 -19.5t19.5 -46.5z" />
    <glyph glyph-name="aring" unicode="&#xe5;" horiz-adv-x="496" 
d="M499 125h11q-6 -136 -113 -136q-73 0 -101 66h-3q-59 -68 -145 -68q-52 0 -85.5 30.5t-33.5 78.5q0 57 25.5 83.5t72.5 44.5q19 7 83 27t84 31v69q0 109 -72 109q-40 0 -59 -24q0 -10 8 -39.5t8 -43.5q0 -18 -19.5 -34t-49.5 -16q-29 0 -43 17.5t-14 42.5q0 44 56 75.5
t119 31.5q44 0 73 -5t56.5 -19.5t40.5 -45.5t13 -79q0 -52 -3 -139.5t-3 -96.5q0 -15 11.5 -32t30.5 -17q23 0 36.5 25.5t15.5 63.5zM291 71l4 196q-75 -26 -109.5 -57.5t-34.5 -92.5q0 -87 60 -87q51 0 80 41zM368 630q0 -45 -33 -73.5t-87 -28.5q-55 0 -87.5 28t-32.5 74
q0 45 34.5 73.5t85.5 28.5q52 0 86 -28t34 -74zM307 630q0 37 -14.5 64t-44.5 27t-44.5 -26.5t-14.5 -64.5q0 -37 14.5 -63.5t44.5 -26.5t44.5 26t14.5 64z" />
    <glyph glyph-name="ae" unicode="&#xe6;" horiz-adv-x="721" 
d="M148 -13q-52 0 -85.5 30.5t-33.5 78.5q0 57 25.5 83.5t72.5 44.5q19 7 83 27t84 31v69q0 109 -72 109q-40 0 -59 -24q0 -10 8 -39.5t8 -43.5q0 -18 -19.5 -34t-49.5 -16q-29 0 -43 17.5t-14 42.5q0 44 56 75.5t119 31.5q103 0 144 -50q58 50 133 50q101 0 148 -54.5
t47 -137.5v-8h-291v-22q0 -222 142 -222q52 0 87 22.5t63 72.5l10 -6q-28 -57 -79.5 -92.5t-117.5 -35.5q-131 0 -194 100q-66 -100 -172 -100zM211 30q53 0 80 39l4 198q-75 -26 -109.5 -57.5t-34.5 -92.5q0 -87 60 -87zM409 281l168 2q0 176 -76 176q-40 0 -65 -49.5
t-27 -128.5z" />
    <glyph glyph-name="ccedilla" unicode="&#xe7;" horiz-adv-x="440" 
d="M128 -233v14q29 0 49 2t42 8t33.5 19.5t11.5 34.5q0 40 -73 40v108q-81 17 -123 81t-42 156q0 99 63 169.5t168 70.5q78 0 119.5 -33t41.5 -84q0 -28 -18 -45.5t-48 -17.5q-26 0 -44.5 15.5t-18.5 43.5q0 18 12 46t13 33q-7 31 -57 31q-47 0 -76 -56t-29 -164
q0 -98 35 -154t95 -56q102 0 148 93l10 -6q-27 -56 -77.5 -92.5t-111.5 -36.5q-25 0 -46 3v-41q139 2 139 -82q0 -31 -16.5 -52t-48.5 -31t-66.5 -13.5t-84.5 -3.5z" />
    <glyph glyph-name="egrave" unicode="&#xe8;" horiz-adv-x="462" 
d="M443 121l9 -6q-28 -57 -79.5 -92.5t-117.5 -35.5q-112 0 -170.5 68.5t-58.5 175.5q0 98 59.5 168.5t160.5 70.5t148.5 -54.5t47.5 -137.5v-8h-292v-22q0 -222 143 -222q52 0 87 22.5t63 72.5zM150 281l169 2q0 176 -77 176q-40 0 -65 -49.5t-27 -128.5zM328 533l-5 -5
l-63 44.5l-55 37l-34 22.5q-27 19 -38 32t-11 34q0 17 13.5 30.5t35.5 13.5q21 0 36.5 -12t31.5 -39q12 -20 41 -72.5z" />
    <glyph glyph-name="eacute" unicode="&#xe9;" horiz-adv-x="462" 
d="M373 698q0 -21 -11 -34.5t-39 -31.5q-5 -3 -56 -37t-95 -67l-5 6l36 64l31 55.5t22 37.5q30 51 68 51q22 0 35.5 -13.5t13.5 -30.5zM443 121l9 -6q-28 -57 -79.5 -92.5t-117.5 -35.5q-112 0 -170.5 68.5t-58.5 175.5q0 98 59.5 168.5t160.5 70.5t148.5 -54.5t47.5 -137.5
v-8h-292v-22q0 -222 143 -222q52 0 87 22.5t63 72.5zM150 281l169 2q0 176 -77 176q-40 0 -65 -49.5t-27 -128.5z" />
    <glyph glyph-name="ecircumflex" unicode="&#xea;" horiz-adv-x="462" 
d="M404 544l-9 -7l-153 122l-152 -122l-8 7l112 175q8 13 17.5 17t32.5 4q22 0 30.5 -4t16.5 -15q15 -22 113 -177zM443 121l9 -6q-28 -57 -79.5 -92.5t-117.5 -35.5q-112 0 -170.5 68.5t-58.5 175.5q0 98 59.5 168.5t160.5 70.5t148.5 -54.5t47.5 -137.5v-8h-292v-22
q0 -222 143 -222q52 0 87 22.5t63 72.5zM150 281l169 2q0 176 -77 176q-40 0 -65 -49.5t-27 -128.5z" />
    <glyph glyph-name="edieresis" unicode="&#xeb;" horiz-adv-x="462" 
d="M419 622q0 -28 -19.5 -48t-46.5 -20t-46 19.5t-19 46.5q0 28 19 48t46 20t46.5 -19.5t19.5 -46.5zM200 622q0 -28 -19 -48t-47 -20q-26 0 -45.5 19.5t-19.5 46.5q0 28 19.5 48t45.5 20q27 0 46.5 -19.5t19.5 -46.5zM443 121l9 -6q-28 -57 -79.5 -92.5t-117.5 -35.5
q-112 0 -170.5 68.5t-58.5 175.5q0 98 59.5 168.5t160.5 70.5t148.5 -54.5t47.5 -137.5v-8h-292v-22q0 -222 143 -222q52 0 87 22.5t63 72.5zM150 281l169 2q0 176 -77 176q-40 0 -65 -49.5t-27 -128.5z" />
    <glyph glyph-name="igrave" unicode="&#xec;" horiz-adv-x="291" 
d="M24 0v7q29 2 44 7q26 9 26 44v323q-2 35 -26 52q-16 11 -59 13v6l196 11l4 -4v-399q0 -32 25 -45q12 -6 48 -8v-7h-258zM214 533l-5 -5l-63 44.5l-55 37l-34 22.5q-27 19 -38 32t-11 34q0 17 13.5 30.5t35.5 13.5q21 0 36.5 -12t31.5 -39q12 -20 41 -72.5z" />
    <glyph glyph-name="iacute" unicode="&#xed;" horiz-adv-x="288" 
d="M271 698q0 -21 -11 -34.5t-39 -31.5q-5 -3 -56 -37t-95 -67l-5 6l36 64l31 55.5t22 37.5q30 51 68 51q22 0 35.5 -13.5t13.5 -30.5zM24 0v7q29 2 44 7q26 9 26 44v323q-2 35 -26 52q-16 11 -59 13v6l196 11l4 -4v-399q0 -32 25 -45q12 -6 48 -8v-7h-258z" />
    <glyph glyph-name="icircumflex" unicode="&#xee;" horiz-adv-x="291" 
d="M2 531l-7 5q22 39 52.5 102t39.5 80q11 21 49 21t47 -19q9 -17 39.5 -80t52.5 -104l-7 -5l-133 123zM24 0v7q29 2 44 7q26 9 26 44v323q-2 35 -26 52q-16 11 -59 13v6l196 11l4 -4v-399q0 -32 25 -45q12 -6 48 -8v-7h-258z" />
    <glyph glyph-name="idieresis" unicode="&#xef;" horiz-adv-x="291" 
d="M35 554q-26 0 -44.5 19t-18.5 45q0 27 18.5 46.5t44.5 19.5q27 0 45.5 -19t18.5 -45q0 -27 -18.5 -46.5t-45.5 -19.5zM233 554q-26 0 -45 19t-19 45q0 27 19 46.5t45 19.5t45 -19t19 -45q0 -27 -19 -46.5t-45 -19.5zM24 0v7q29 2 44 7q26 9 26 44v323q-2 35 -26 52
q-16 11 -59 13v6l196 11l4 -4v-399q0 -32 25 -45q12 -6 48 -8v-7h-258z" />
    <glyph glyph-name="eth" unicode="&#xf0;" horiz-adv-x="528" 
d="M264 -14q-101 0 -170 64.5t-69 178.5q0 107 68.5 174t174.5 67q69 0 102 -42l4 2q-15 112 -82 205l-115 -73l-11 18l112 72q-49 59 -87 87l5 8q75 -39 118 -73l91 59l12 -18l-85 -55q170 -144 170 -369q0 -132 -61.5 -218.5t-176.5 -86.5zM265 -4q110 0 110 236
q0 227 -109 227q-112 0 -112 -225q0 -238 111 -238z" />
    <glyph glyph-name="ntilde" unicode="&#xf1;" horiz-adv-x="585" 
d="M573 7v-7h-249v7q27 2 43 7q22 8 22 45v262q0 49 -21 74.5t-53 25.5q-40 0 -68.5 -17.5t-38.5 -38.5v-304q0 -35 22 -45q14 -7 44 -9v-7h-250v7q25 1 43 7q26 8 26 42v323q-2 37 -25 53q-18 12 -50 14v6l186 11l4 -4v-71h3l13.5 13.5l15 15t14.5 13t18 13.5l19 10t23 9.5
t24.5 5t30.5 2.5q69 0 102.5 -42t33.5 -116v-252q0 -34 24 -45q15 -6 44 -8zM480 700l11 -3q-13 -47 -49 -90t-84 -43q-41 0 -90 27t-73 27q-52 0 -86 -64l-11 4q17 49 50.5 90.5t79.5 41.5q40 0 91.5 -27.5t74.5 -27.5q58 0 86 65z" />
    <glyph glyph-name="ograve" unicode="&#xf2;" horiz-adv-x="528" 
d="M503 232q0 -106 -64.5 -176t-178.5 -70q-99 0 -167 66t-68 175q0 108 66 175.5t175 67.5q108 0 172.5 -66.5t64.5 -171.5zM375 232q0 227 -109 227q-112 0 -112 -225q0 -238 111 -238q110 0 110 236zM346 533l-5 -5l-63 44.5l-55 37l-34 22.5q-27 19 -38 32t-11 34
q0 17 13.5 30.5t35.5 13.5q21 0 36.5 -12t31.5 -39q12 -20 41 -72.5z" />
    <glyph glyph-name="oacute" unicode="&#xf3;" horiz-adv-x="528" 
d="M387 698q0 -21 -11 -34.5t-39 -31.5q-5 -3 -56 -37t-95 -67l-5 6l36 64l31 55.5t22 37.5q30 51 68 51q22 0 35.5 -13.5t13.5 -30.5zM503 232q0 -106 -64.5 -176t-178.5 -70q-99 0 -167 66t-68 175q0 108 66 175.5t175 67.5q108 0 172.5 -66.5t64.5 -171.5zM375 232
q0 227 -109 227q-112 0 -112 -225q0 -238 111 -238q110 0 110 236z" />
    <glyph glyph-name="ocircumflex" unicode="&#xf4;" horiz-adv-x="528" 
d="M424 544l-9 -7l-153 122l-152 -122l-8 7l112 175q8 13 17.5 17t32.5 4q22 0 30.5 -4t16.5 -15q15 -22 113 -177zM503 232q0 -106 -64.5 -176t-178.5 -70q-99 0 -167 66t-68 175q0 108 66 175.5t175 67.5q108 0 172.5 -66.5t64.5 -171.5zM375 232q0 227 -109 227
q-112 0 -112 -225q0 -238 111 -238q110 0 110 236z" />
    <glyph glyph-name="otilde" unicode="&#xf5;" horiz-adv-x="528" 
d="M503 232q0 -106 -64.5 -176t-178.5 -70q-99 0 -167 66t-68 175q0 108 66 175.5t175 67.5q108 0 172.5 -66.5t64.5 -171.5zM375 232q0 227 -109 227q-112 0 -112 -225q0 -238 111 -238q110 0 110 236zM449 700l11 -3q-13 -47 -49 -90t-84 -43q-41 0 -90 27t-73 27
q-52 0 -86 -64l-11 4q17 49 50.5 90.5t79.5 41.5q40 0 91.5 -27.5t74.5 -27.5q58 0 86 65z" />
    <glyph glyph-name="odieresis" unicode="&#xf6;" horiz-adv-x="528" 
d="M438 622q0 -28 -19.5 -48t-46.5 -20t-46 19.5t-19 46.5q0 28 19 48t46 20t46.5 -19.5t19.5 -46.5zM219 622q0 -28 -19 -48t-47 -20q-26 0 -45.5 19.5t-19.5 46.5q0 28 19.5 48t45.5 20q27 0 46.5 -19.5t19.5 -46.5zM503 232q0 -106 -64.5 -176t-178.5 -70q-99 0 -167 66
t-68 175q0 108 66 175.5t175 67.5q108 0 172.5 -66.5t64.5 -171.5zM375 232q0 227 -109 227q-112 0 -112 -225q0 -238 111 -238q110 0 110 236z" />
    <glyph glyph-name="divide" unicode="&#xf7;" horiz-adv-x="562" 
d="M281 58q-23 0 -39 16.5t-16 39.5t16 39t39 16t39.5 -16t16.5 -39t-16.5 -39.5t-39.5 -16.5zM281 350q-23 0 -39 15.5t-16 38.5q0 24 16 40t39 16t39.5 -16t16.5 -40q0 -22 -16.5 -38t-39.5 -16zM43 239v41h476v-41h-476z" />
    <glyph glyph-name="oslash" unicode="&#xf8;" horiz-adv-x="528" 
d="M50 -25l-11 9l57 65q-71 68 -71 178q0 108 66 175.5t175 67.5q94 0 158 -54l68 77l10 -10l-68 -76q69 -66 69 -175q0 -106 -64.5 -176t-178.5 -70q-88 0 -153 53zM265 -4q110 0 110 236q0 58 -9 104l-200 -235q26 -105 99 -105zM163 118l200 235q-24 106 -97 106
q-112 0 -112 -225q0 -72 9 -116z" />
    <glyph glyph-name="ugrave" unicode="&#xf9;" horiz-adv-x="569" 
d="M559 15v-6l-182 -12l-7 7v62h-3q-25 -26 -39.5 -38.5t-46.5 -26t-72 -13.5q-66 0 -97.5 44t-31.5 119v230q-2 37 -26 51q-19 11 -50 13v6l187 12l5 -6v-329q0 -49 19 -74.5t50 -25.5q71 0 104 60v295q-2 36 -24 50q-14 9 -62 11v7l196 12l5 -6v-381q2 -35 24 -49
q15 -10 51 -12zM358 533l-5 -5l-63 44.5l-55 37l-34 22.5q-27 19 -38 32t-11 34q0 17 13.5 30.5t35.5 13.5q21 0 36.5 -12t31.5 -39q12 -20 41 -72.5z" />
    <glyph glyph-name="uacute" unicode="&#xfa;" horiz-adv-x="569" 
d="M409 698q0 -21 -11 -34.5t-39 -31.5q-5 -3 -56 -37t-95 -67l-5 6l36 64l31 55.5t22 37.5q30 51 68 51q22 0 35.5 -13.5t13.5 -30.5zM559 15v-6l-182 -12l-7 7v62h-3q-25 -26 -39.5 -38.5t-46.5 -26t-72 -13.5q-66 0 -97.5 44t-31.5 119v230q-2 37 -26 51q-19 11 -50 13v6
l187 12l5 -6v-329q0 -49 19 -74.5t50 -25.5q71 0 104 60v295q-2 36 -24 50q-14 9 -62 11v7l196 12l5 -6v-381q2 -35 24 -49q15 -10 51 -12z" />
    <glyph glyph-name="ucircumflex" unicode="&#xfb;" horiz-adv-x="569" 
d="M438 544l-9 -7l-153 122l-152 -122l-8 7l112 175q8 13 17.5 17t32.5 4q22 0 30.5 -4t16.5 -15q15 -22 113 -177zM559 15v-6l-182 -12l-7 7v62h-3q-25 -26 -39.5 -38.5t-46.5 -26t-72 -13.5q-66 0 -97.5 44t-31.5 119v230q-2 37 -26 51q-19 11 -50 13v6l187 12l5 -6v-329
q0 -49 19 -74.5t50 -25.5q71 0 104 60v295q-2 36 -24 50q-14 9 -62 11v7l196 12l5 -6v-381q2 -35 24 -49q15 -10 51 -12z" />
    <glyph glyph-name="udieresis" unicode="&#xfc;" horiz-adv-x="569" 
d="M449 622q0 -28 -19.5 -48t-46.5 -20t-46 19.5t-19 46.5q0 28 19 48t46 20t46.5 -19.5t19.5 -46.5zM230 622q0 -28 -19 -48t-47 -20q-26 0 -45.5 19.5t-19.5 46.5q0 28 19.5 48t45.5 20q27 0 46.5 -19.5t19.5 -46.5zM559 15v-6l-182 -12l-7 7v62h-3q-25 -26 -39.5 -38.5
t-46.5 -26t-72 -13.5q-66 0 -97.5 44t-31.5 119v230q-2 37 -26 51q-19 11 -50 13v6l187 12l5 -6v-329q0 -49 19 -74.5t50 -25.5q71 0 104 60v295q-2 36 -24 50q-14 9 -62 11v7l196 12l5 -6v-381q2 -35 24 -49q15 -10 51 -12z" />
    <glyph glyph-name="yacute" unicode="&#xfd;" horiz-adv-x="459" 
d="M486 457v-6q-50 -9 -69 -55l-165 -414q-49 -121 -91 -165t-97 -44q-28 0 -54.5 19t-26.5 57q0 25 18 45t46 20q24 0 43 -14.5t19 -43.5q0 -8 -4.5 -34.5t-4.5 -28.5q28 5 59.5 45.5t48.5 76.5t29 69q-29 68 -106.5 235l-84.5 182q-18 41 -68 49v7h244v-9q-60 -3 -60 -21
q0 -3 7 -21q12 -33 126 -277q36 87 98 252q8 24 8 35q0 22 -78 35v6h163zM416 698q0 -21 -11 -34.5t-39 -31.5q-5 -3 -56 -37t-95 -67l-5 6l36 64l31 55.5t22 37.5q30 51 68 51q22 0 35.5 -13.5t13.5 -30.5z" />
    <glyph glyph-name="thorn" unicode="&#xfe;" horiz-adv-x="566" 
d="M3 -226v7q35 2 55 8q26 8 26 46v826q-3 38 -27 54q-17 12 -61 14v6l198 11l4 -5v-336l4 -1q58 66 133 66q87 0 144 -67t57 -174q0 -104 -65 -172.5t-157 -68.5q-70 0 -112 31h-4v-178q0 -36 28 -47q32 -11 71 -13v-7h-294zM295 0q56 0 85 60.5t29 163.5q0 89 -29 147
t-91 58q-53 0 -91 -43v-310q26 -76 97 -76z" />
    <glyph glyph-name="ydieresis" unicode="&#xff;" horiz-adv-x="459" 
d="M486 457v-6q-50 -9 -69 -55l-165 -414q-49 -121 -91 -165t-97 -44q-28 0 -54.5 19t-26.5 57q0 25 18 45t46 20q24 0 43 -14.5t19 -43.5q0 -8 -4.5 -34.5t-4.5 -28.5q28 5 59.5 45.5t48.5 76.5t29 69q-29 68 -106.5 235l-84.5 182q-18 41 -68 49v7h244v-9q-60 -3 -60 -21
q0 -3 7 -21q12 -33 126 -277q36 87 98 252q8 24 8 35q0 22 -78 35v6h163zM426 622q0 -28 -19.5 -48t-46.5 -20t-46 19.5t-19 46.5q0 28 19 48t46 20t46.5 -19.5t19.5 -46.5zM207 622q0 -28 -19 -48t-47 -20q-26 0 -45.5 19.5t-19.5 46.5q0 28 19.5 48t45.5 20
q27 0 46.5 -19.5t19.5 -46.5z" />
    <glyph glyph-name="dotlessi" unicode="&#x131;" horiz-adv-x="291" 
d="M24 0v7q29 2 44 7q26 9 26 44v323q-2 35 -26 52q-16 11 -59 13v6l196 11l4 -4v-399q0 -32 25 -45q12 -6 48 -8v-7h-258z" />
    <glyph glyph-name="Lslash" unicode="&#x141;" horiz-adv-x="625" 
d="M30 0v7q56 3 74 11q31 12 31 49v237l-90 -32l-8 21l98 36v284q0 36 -31 50q-23 10 -74 13v7h341v-7q-58 -3 -72 -8q-31 -10 -31 -50v-246l135 49l8 -21l-143 -52v-247q0 -59 20 -74t93 -15q114 0 138 24q22 22 56 78.5t48 89.5h8l-13 -204h-588z" />
    <glyph glyph-name="lslash" unicode="&#x142;" horiz-adv-x="293" 
d="M21 0v7q28 2 43 6q26 10 26 45v259l-81 -30l-8 21l89 33v319q-2 38 -27 55q-17 11 -69 14v6l207 11l4 -4v-364l78 29l8 -21l-86 -32v-292q0 -35 27 -47q15 -6 43 -8v-7h-254z" />
    <glyph glyph-name="OE" unicode="&#x152;" horiz-adv-x="1050" 
d="M397 0q-52 0 -101.5 11t-98.5 36.5t-85.5 63.5t-59 97.5t-22.5 132.5q0 110 54 189t138.5 116t188.5 37h572v-166h-10q-12 40 -51.5 93t-72.5 57q-40 5 -94 5h-98v-312h84q57 0 86 31q13 12 26.5 46t15.5 55h10v-281h-10q-2 22 -16.5 58.5t-25.5 47.5q-27 31 -86 31h-84
v-248q0 -58 20 -73t93 -15q46 0 66 0.5t48.5 6t39.5 16.5q23 24 55.5 78.5t47.5 86.5h9l-13 -200h-626zM419 10q46 0 65.5 13.5t28.5 38.5q11 27 11 287q0 241 -9 264q-13 59 -109 59q-113 0 -169.5 -87t-56.5 -242q0 -147 63.5 -240t175.5 -93z" />
    <glyph glyph-name="oe" unicode="&#x153;" horiz-adv-x="809" 
d="M260 -14q-99 0 -167 66t-68 175q0 108 66 175.5t175 67.5q106 0 171 -67q62 67 156 67q101 0 148.5 -54.5t47.5 -137.5v-8h-291v-22q0 -222 142 -222q52 0 87 22.5t63 72.5l9 -6q-28 -58 -79 -93t-117 -35q-108 0 -169 66q-62 -67 -174 -67zM265 -4q110 0 110 236
q0 227 -109 227q-112 0 -112 -225q0 -238 111 -238zM498 281l168 2q0 176 -76 176q-41 0 -65.5 -49.5t-26.5 -128.5z" />
    <glyph glyph-name="Scaron" unicode="&#x160;" horiz-adv-x="558" 
d="M120 933l9 7l153 -123l151 122l9 -6l-112 -175q-9 -14 -17.5 -17.5t-32.5 -3.5q-23 0 -31.5 3.5t-15.5 15.5q-15 22 -113 177zM527 197q0 -92 -68 -151.5t-174 -59.5q-120 0 -201 54l-33 -49h-10l-6 242h9q90 -234 237 -234q67 0 101 40t34 99q0 90 -107 130l-65 24
t-71 28q-120 52 -120 185q0 82 61 137.5t157 55.5q111 0 179 -50l31 45h10l4 -232h-9q-33 102 -83.5 163t-129.5 61q-48 0 -82 -33.5t-34 -85.5q0 -84 102 -130q25 -11 70.5 -27.5t62.5 -23.5q68 -31 101.5 -72.5t33.5 -115.5z" />
    <glyph glyph-name="scaron" unicode="&#x161;" horiz-adv-x="406" 
d="M43 733l9 7l153 -123l151 122l9 -6l-112 -175q-9 -14 -17.5 -17.5t-32.5 -3.5q-23 0 -31.5 3.5t-15.5 15.5q-15 22 -113 177zM381 134q0 -69 -50.5 -108.5t-128.5 -39.5q-44 0 -85.5 14t-58.5 29l-20 -34h-9l-5 163h8q20 -54 67.5 -108t101.5 -54q44 0 68 25t24 63
t-25.5 59.5t-96.5 43.5q-134 41 -134 147q0 58 44.5 97t118.5 39q77 0 124 -27l19 28h9l6 -147h-8q-22 55 -60.5 95.5t-83.5 40.5q-38 0 -58.5 -24.5t-20.5 -55.5q0 -39 24 -56.5t94 -40.5q66 -21 101 -56t35 -93z" />
    <glyph glyph-name="Ydieresis" unicode="&#x178;" horiz-adv-x="657" 
d="M683 683v-7q-30 -4 -48 -14q-33 -18 -60 -62q-57 -88 -150 -257q-21 -39 -26.5 -63t-5.5 -67v-144q0 -36 30 -50q20 -8 81 -12v-7h-357v7q64 4 81 10q31 12 31 50v174q0 37 -28 90q-70 136 -143 260q-31 52 -62 70q-24 13 -60 15v7h353v-7q-104 -6 -104 -31q0 -14 46 -99
q1 -2 51.5 -95t76.5 -137l125 219q46 84 46 101q0 35 -111 42v7h234zM532 832q0 -28 -19.5 -48t-46.5 -20t-46 19.5t-19 46.5q0 28 19 48t46 20t46.5 -19.5t19.5 -46.5zM313 832q0 -28 -19 -48t-47 -20q-26 0 -45.5 19.5t-19.5 46.5q0 28 19.5 48t45.5 20q27 0 46.5 -19.5
t19.5 -46.5z" />
    <glyph glyph-name="Zcaron" unicode="&#x17d;" horiz-adv-x="626" 
d="M164 930l9 7l153 -123l151 122l9 -6l-112 -175q-9 -14 -17.5 -17.5t-32.5 -3.5q-23 0 -31.5 3.5t-15.5 15.5q-15 22 -113 177zM612 213h10l-23 -213h-599v11l457 660h-173q-64 0 -90 -9q-30 -8 -73.5 -61.5t-71.5 -109.5h-10l21 192h550v-11l-457 -660h191q125 0 152 28
q29 30 63.5 82.5t52.5 90.5z" />
    <glyph glyph-name="zcaron" unicode="&#x17e;" horiz-adv-x="433" 
d="M58 733l9 7l153 -123l151 122l9 -6l-112 -175q-9 -14 -17.5 -17.5t-32.5 -3.5q-23 0 -31.5 3.5t-15.5 15.5q-15 22 -113 177zM417 161v-161h-402v10l269 435h-68q-74 0 -99 -11q-27 -11 -76 -117h-8v140h379v-10l-269 -436q29 -1 79 -1q29 0 85 4q30 2 54 47
q24 44 48 100h8z" />
    <glyph glyph-name="florin" unicode="&#x192;" horiz-adv-x="529" 
d="M-41 -193q-52 0 -82.5 22.5t-30.5 64.5q0 25 16 42.5t40 17.5q26 0 43.5 -17t17.5 -47q0 -18 -11.5 -35.5t-25.5 -26.5q9 -12 35 -12q51 0 86 55t59 168q10 48 49 281h-106l3 17h105q14 81 37.5 134t66.5 94q62 59 159 59q48 0 85.5 -26t37.5 -66q0 -24 -14.5 -42
t-40.5 -18t-44 15t-18 42q0 28 30 71q-9 15 -37 15q-93 0 -130 -219l-10 -59h124l-3 -17h-124q-37 -218 -45 -253q-29 -128 -111 -198q-77 -62 -161 -62z" />
    <glyph glyph-name="circumflex" unicode="&#x2c6;" 
d="M411 544l-9 -7l-153 122l-152 -122l-8 7l112 175q8 13 17.5 17t32.5 4q22 0 30.5 -4t16.5 -15q15 -22 113 -177z" />
    <glyph glyph-name="caron" unicode="&#x2c7;" 
d="M89 733l9 7l153 -123l151 122l9 -6l-112 -175q-9 -14 -17.5 -17.5t-32.5 -3.5q-23 0 -31.5 3.5t-15.5 15.5q-15 22 -113 177z" />
    <glyph glyph-name="breve" unicode="&#x2d8;" 
d="M391 725l13 -5q-26 -96 -67 -139t-87 -43t-87 43t-67 139l13 5q23 -48 60 -75t81 -27t81 27t60 75z" />
    <glyph glyph-name="dotaccent" unicode="&#x2d9;" 
d="M316 652q0 -28 -19.5 -48.5t-46.5 -20.5t-46 20t-19 47t19 47t46 20q28 0 47 -19.5t19 -45.5z" />
    <glyph glyph-name="ring" unicode="&#x2da;" 
d="M370 630q0 -45 -33 -73.5t-87 -28.5q-55 0 -87.5 28t-32.5 74q0 45 34.5 73.5t85.5 28.5q52 0 86 -28t34 -74zM309 630q0 37 -14.5 64t-44.5 27t-44.5 -26.5t-14.5 -64.5q0 -37 14.5 -63.5t44.5 -26.5t44.5 26t14.5 64z" />
    <glyph glyph-name="ogonek" unicode="&#x2db;" 
d="M342 -220v-11q-93 1 -142.5 21t-49.5 67q0 38 38 71t111 72h11q-70 -58 -70 -133q0 -39 22 -60t80 -27z" />
    <glyph glyph-name="tilde" unicode="&#x2dc;" 
d="M435 700l11 -3q-13 -47 -49 -90t-84 -43q-41 0 -90 27t-73 27q-52 0 -86 -64l-11 4q17 49 50.5 90.5t79.5 41.5q40 0 91.5 -27.5t74.5 -27.5q58 0 86 65z" />
    <glyph glyph-name="hungarumlaut" unicode="&#x2dd;" 
d="M438 703q0 -19 -8 -30.5t-29 -27.5q-12 -10 -58.5 -42.5l-93.5 -68.5l-6 7l49 87l39 69q16 26 30 35.5t35 9.5q18 0 30 -12t12 -27zM254 703q0 -19 -8 -30.5t-29 -27.5q-11 -9 -57 -42l-94 -69l-7 7l46 81.5t43 74.5q16 26 30 35.5t35 9.5q17 0 29 -12t12 -27z" />
    <glyph glyph-name="endash" unicode="&#x2013;" horiz-adv-x="544" 
d="M50 216v75h444v-75h-444z" />
    <glyph glyph-name="emdash" unicode="&#x2014;" horiz-adv-x="884" 
d="M50 216v75h784v-75h-784z" />
    <glyph glyph-name="quoteleft" unicode="&#x2018;" horiz-adv-x="199" 
d="M22 586q0 103 148 169l6 -10q-43 -21 -75 -58t-34 -77h35q39 0 56.5 -20.5t17.5 -47.5q0 -23 -18 -44t-49 -21q-87 0 -87 109z" />
    <glyph glyph-name="quoteright" unicode="&#x2019;" horiz-adv-x="199" 
d="M188 646q0 -60 -45 -102t-103 -67l-6 10q43 21 75 58t34 77h-35q-39 0 -56.5 20.5t-17.5 47.5q0 23 18 44t49 21q87 0 87 -109z" />
    <glyph glyph-name="quotesinglbase" unicode="&#x201a;" horiz-adv-x="199" 
d="M177 20q0 -60 -45 -102t-103 -67l-6 10q43 21 75 58t34 77h-35q-39 0 -56.5 20.5t-17.5 47.5q0 23 18 44t49 21q87 0 87 -109z" />
    <glyph glyph-name="quotedblleft" unicode="&#x201c;" horiz-adv-x="382" 
d="M22 586q0 103 148 169l6 -10q-43 -21 -75 -58t-34 -77h35q39 0 56.5 -20.5t17.5 -47.5q0 -23 -18 -44t-49 -21q-87 0 -87 109zM206 586q0 103 148 169l5 -10q-43 -21 -74.5 -58t-34.5 -77h36q38 0 56 -21t18 -47q0 -23 -18.5 -44t-48.5 -21q-87 0 -87 109z" />
    <glyph glyph-name="quotedblright" unicode="&#x201d;" horiz-adv-x="382" 
d="M188 646q0 -60 -45 -102t-103 -67l-6 10q43 21 75 58t34 77h-35q-39 0 -56.5 20.5t-17.5 47.5q0 23 18 44t49 21q87 0 87 -109zM371 646q0 -60 -45 -102t-103 -67l-6 10q43 21 75 58t34 77h-35q-39 0 -56.5 20.5t-17.5 47.5q0 23 18.5 44t48.5 21q87 0 87 -109z" />
    <glyph glyph-name="quotedblbase" unicode="&#x201e;" horiz-adv-x="382" 
d="M177 20q0 -60 -45 -102t-103 -67l-6 10q43 21 75 58t34 77h-35q-39 0 -56.5 20.5t-17.5 47.5q0 23 18 44t49 21q87 0 87 -109zM360 20q0 -60 -45 -102t-103 -67l-6 10q43 21 75 58t34 77h-35q-39 0 -56.5 20.5t-17.5 47.5q0 23 18.5 44t48.5 21q87 0 87 -109z" />
    <glyph glyph-name="dagger" unicode="&#x2020;" horiz-adv-x="418" 
d="M205 98q-5 113 -30 391q-2 31 -16 31q-7 0 -24 -22q-1 -1 -6.5 -7.5t-8 -9l-8 -8t-9 -7.5t-9 -4t-11.5 -2q-22 0 -35.5 13t-13.5 36q0 14 9 24t24 10q27 0 35 -37q4 1 26 12.5t34 11.5q28 0 41 -16q-2 22 -18 71t-16 68q0 20 10 33.5t30 13.5q19 0 28.5 -13.5t9.5 -33.5
q0 -19 -15.5 -68t-18.5 -71q17 16 42 16q12 0 35 -11.5l25 -12.5q4 17 14.5 27t24.5 10t22 -10t8 -24q0 -23 -14.5 -36t-36.5 -13q-5 0 -9 1t-8.5 4t-7 5t-7.5 7l-6.5 6.5t-6 7.5t-5.5 7q-18 22 -26 22q-14 0 -15 -31q-24 -263 -30 -391h-7z" />
    <glyph glyph-name="daggerdbl" unicode="&#x2021;" horiz-adv-x="418" 
d="M210 5q-18 0 -28.5 13t-10.5 31q0 20 16 52t18 40q-19 -17 -48 -17q-10 0 -18.5 1.5t-17 4.5l-11.5 4q-7 -36 -38 -36q-13 0 -21 10.5t-8 23.5q0 39 38 39q17 0 39 -19t36 -19t23 37q23 133 26 166h7q6 -42 28 -166q9 -37 23 -37q15 0 35 19t37 19q20 0 30.5 -11
t10.5 -28q0 -13 -9 -23.5t-23 -10.5q-28 0 -36 36q-37 -10 -45 -10q-27 0 -50 17q2 -9 18.5 -40.5t16.5 -51.5q0 -18 -10 -31t-28 -13zM205 367q-3 27 -14.5 94.5t-12.5 71.5q-9 37 -23 37q-15 0 -35 -19t-38 -19q-19 0 -29.5 11t-10.5 28q0 13 9 23.5t23 10.5q28 0 36 -36
q40 10 46 10q25 0 48 -17q-2 10 -18 41t-16 51q0 18 10.5 31t28.5 13t28 -13t10 -31q0 -20 -16.5 -52t-18.5 -40q21 17 50 17q9 0 46 -10q8 36 38 36q14 0 21.5 -10t7.5 -24q0 -17 -10 -28t-28 -11t-39.5 19t-35.5 19t-23 -37q-24 -137 -27 -166h-7z" />
    <glyph glyph-name="bullet" unicode="&#x2022;" horiz-adv-x="405" 
d="M342 325q0 -55 -40 -94.5t-96 -39.5t-96 39.5t-40 94.5t40 95.5t96 40.5t96 -40.5t40 -95.5z" />
    <glyph glyph-name="ellipsis" unicode="&#x2026;" horiz-adv-x="815" 
d="M755 64q0 -31 -22 -52.5t-53 -21.5q-32 0 -54 21.5t-22 52.5t22 53t54 22q31 0 53 -22t22 -53zM484 64q0 -31 -22.5 -52.5t-53.5 -21.5t-53.5 21.5t-22.5 52.5t22.5 53t53.5 22t53.5 -22t22.5 -53zM212 64q0 -31 -22.5 -52.5t-53.5 -21.5t-53.5 21.5t-22.5 52.5t22.5 53
t53.5 22t53.5 -22t22.5 -53z" />
    <glyph glyph-name="perthousand" unicode="&#x2030;" horiz-adv-x="1250" 
d="M220 293q-71 0 -118.5 42t-47.5 118q0 72 50.5 119.5t115.5 47.5q74 0 123 -41.5t49 -124.5q0 -67 -51.5 -114t-120.5 -47zM223 303q36 0 58 41.5t22 107.5q0 73 -20.5 116t-61.5 43q-40 0 -60 -43.5t-20 -110.5q0 -68 20 -111t62 -43zM631 -14q-71 0 -118.5 42
t-47.5 118q0 70 51 118.5t115 48.5q73 0 122.5 -41.5t49.5 -124.5q0 -67 -51.5 -114t-120.5 -47zM635 -5q34 0 56.5 43t22.5 107q0 71 -20.5 115t-60.5 44q-41 0 -61 -44t-20 -110q0 -68 20 -111.5t63 -43.5zM1023 -14q-71 0 -118 42t-47 118q0 70 50.5 118.5t114.5 48.5
q74 0 123 -41.5t49 -124.5q0 -67 -51.5 -114t-120.5 -47zM1027 -5q34 0 57 43t23 107q0 71 -21 115t-61 44q-41 0 -60.5 -44t-19.5 -110q0 -68 20 -111.5t62 -43.5zM222 -96l-19 10l428 774l21 -10z" />
    <glyph glyph-name="guilsinglleft" unicode="&#x2039;" horiz-adv-x="344" 
d="M286 18l-219 163q-15 11 -19.5 19t-4.5 24t4.5 23.5t17.5 17.5l221 164l4 -4l-142 -203l142 -200z" />
    <glyph glyph-name="guilsinglright" unicode="&#x203a;" horiz-adv-x="344" 
d="M59 18l-5 4l142 200l-142 203l5 4q35 -28 120.5 -90.5t99.5 -73.5q13 -10 17.5 -17.5t4.5 -23.5q0 -17 -4.5 -24.5t-19.5 -18.5z" />
    <glyph glyph-name="fraction" unicode="&#x2044;" horiz-adv-x="324" 
d="M-101 -203l-22 12l507 941l24 -11z" />
    <glyph glyph-name="fraction" unicode="&#x2215;" horiz-adv-x="324" 
d="M-101 -203l-22 12l507 941l24 -11z" />
    <glyph glyph-name="Euro" unicode="&#x20ac;" horiz-adv-x="585" 
d="M354 -14q-105 0 -172.5 66t-80.5 188h-74v15h73q-2 29 0 82h-73v15h76q15 116 90.5 192t191.5 76q79 0 127.5 -36t48.5 -89q0 -38 -16 -57t-38 -19q-25 0 -40 15t-15 38q0 18 16 43t16 39q-4 24 -32.5 40.5t-68.5 16.5q-67 0 -106.5 -68.5t-47.5 -190.5h219v-15h-220
q0 -60 1 -82h187v-15h-186q6 -96 47.5 -156.5t114.5 -60.5q107 0 167 124l10 -6q-33 -73 -83 -114t-132 -41z" />
    <glyph glyph-name="copyrightsound" unicode="&#x2117;" horiz-adv-x="950" 
d="M281 25v7q37 2 60 10t23 30v356q0 25 -23 31q-30 8 -63 12v7h261q71 0 112.5 -29.5t41.5 -80.5q0 -67 -52 -105t-132 -38h-51v-153q0 -23 21 -30q20 -7 73 -10v-7h-271zM476 -181q-181 0 -309 126.5t-128 305.5q0 116 58 215t159 157t220 58q180 0 307.5 -126.5
t127.5 -303.5q0 -117 -58 -216.5t-158.5 -157.5t-218.5 -58zM476 -154q166 0 282.5 118.5t116.5 286.5q0 166 -116.5 284t-282.5 118q-167 0 -284 -118t-117 -284q0 -168 117 -286.5t284 -118.5zM458 235h28q28 0 49 11.5t31.5 30t15.5 37.5t5 37q0 46 -21.5 81.5
t-66.5 35.5h-41v-233z" />
    <glyph glyph-name="trademark" unicode="&#x2122;" horiz-adv-x="657" 
d="M636 438v-5h-140v5q1 0 10.5 1t17 2.5t9.5 2.5q10 6 10 18v193h-6l-88 -219h-6q-9 27 -19 52l-64 162h-6v-152q0 -39 12 -49q7 -6 39 -11v-5h-112v5q31 5 37 9q12 9 12 49v141q0 22 -11 30q-14 10 -35 10v6h102l69 -172l56 139q6 17 8 33h104v-6q-10 0 -31 -6
q-10 -4 -10 -17v-192q0 -13 10 -17q5 -3 32 -7zM270 683v-74h-5q-6 18 -18.5 40t-22.5 23q-9 1 -29 1h-17v-212q0 -12 11 -17l32 -6v-5h-140v5q32 5 33 5q12 5 12 16v214h-19q-20 0 -29 -1q-11 -1 -24 -24t-17 -39h-5v74h238z" />
    <glyph glyph-name="minus" unicode="&#x2212;" horiz-adv-x="562" 
d="M43 240v40h476v-40h-476z" />
    <glyph glyph-name="lessequal" unicode="&#x2264;" horiz-adv-x="562" 
d="M499 80l-442 206v33l442 206v-43l-388 -180l388 -180v-42zM54 0v38h454v-38h-454z" />
    <glyph glyph-name="greaterequal" unicode="&#x2265;" horiz-adv-x="562" 
d="M62 80v42l389 180l-389 180v43l442 -206v-33zM54 0v38h454v-38h-454z" />
    <glyph glyph-name="apple" unicode="&#xf8ff;" horiz-adv-x="615" 
d="M377 -2q-31 0 -53 21.5t-22 53.5q0 14 9 43t9 51v11l-7 5q-7 -1 -20 -1q-30 0 -56 18l-13 -1q-15 -22 -21 -61q-14 -83 -78 -83q-31 0 -54 22.5t-23 54.5t24 53.5t59 21.5q49 0 74 13l3 14q-10 22 -10 43q0 13 3 25l-5 13q-9 3 -27 3q-15 0 -35 -3.5t-29 -3.5
q-33 0 -55 22.5t-22 53.5t22 54t54 23q46 0 67 -42q4 -7 9 -24t11.5 -31.5t17.5 -25.5l15 1q28 30 69 30l11 7q0 28 -17 61.5t-17 52.5q0 32 22 52.5t54 20.5t53 -22.5t21 -53.5q0 -22 -10 -37.5t-22.5 -23t-29 -22.5t-26.5 -33l4 -12q38 -20 48 -58l12 -6q23 8 54.5 39
t63.5 31q30 0 51.5 -22.5t21.5 -54.5q0 -31 -21.5 -52.5t-53.5 -21.5q-24 0 -56.5 23t-59.5 27l-9 -8q-6 -35 -39 -60l-1 -10q18 -23 53 -39q55 -26 55 -76q0 -30 -23 -53t-55 -23zM293 208q29 0 48 20t19 50q0 29 -19 48.5t-48 19.5q-28 0 -47.5 -19.5t-19.5 -48.5
t19.5 -49.5t47.5 -20.5z" />
    <glyph glyph-name="e.ordn" horiz-adv-x="390" 
d="M219 278q-83 0 -127 49.5t-44 124.5q0 68 45 118t119 50q73 0 110.5 -42t37.5 -103v-11h-230q2 -151 116 -151q35 0 65.5 15.5t48.5 43.5l6 -4q-23 -40 -62 -65t-85 -25zM131 473l146 1q0 139 -66 139q-38 0 -57.5 -40.5t-22.5 -99.5z" />
    <glyph glyph-name="R.salt" horiz-adv-x="722" 
d="M30 676v7h357q101 0 165.5 -39t64.5 -117q0 -75 -49.5 -114t-140.5 -63v-8q124 -17 164 -126q9 -24 26.5 -83t17.5 -60q17 -50 61 -59q25 -5 60 -7v-7h-245q-23 113 -57 198q-28 70 -61 104.5t-83 34.5h-42v-270q0 -37 31 -49q20 -8 71 -11v-7h-340v7q53 3 74 11
q31 12 31 49v546q0 39 -31 50q-27 10 -74 13zM472 509q0 79 -38 120t-103 41h-63v-319h41q72 0 117.5 38.5t45.5 119.5z" />
    <glyph glyph-name="fi" horiz-adv-x="582" 
d="M569 7v-7h-246v7q26 1 40 9q21 10 21 43v332q-3 33 -19 50h-156v-379q0 -28 18 -40q16 -12 49 -15v-7h-252v7q24 1 44 7q26 10 26 45v382h-99v16h99v25q0 122 72 197q64 68 170 68q84 0 123 -29.5t39 -77.5q0 -23 -17 -44t-47 -21q-28 0 -45.5 15.5t-17.5 42.5
q0 21 20 68q0 13 -17 24t-48 11q-50 0 -83 -56.5t-34 -162.5v-60h150l136 8l4 -4v-399q0 -34 26 -46q17 -7 44 -9z" />
    <glyph glyph-name="fl" horiz-adv-x="582" 
d="M570 7v-7h-246v7q25 1 41 8q20 10 20 44v522q-34 14 -34 52q0 14 5.5 25.5t14 21.5t9.5 12q-13 44 -64 44q-46 0 -76 -50t-31 -155v-74h115v-16h-115v-379q0 -32 22 -43q16 -9 46 -12v-7h-253v7q24 1 44 7q26 10 26 45v382h-99v16h99v25q0 122 72 198q63 67 156 67
q56 0 98 -21l76 20l4 -4v-679q0 -33 26 -45q21 -10 44 -11z" />
    <glyph glyph-name="ampersand.salt" horiz-adv-x="872" 
d="M364 -18q-129 0 -220.5 66t-91.5 165q0 58 31 94t84 63q-35 24 -56 53t-21 77q0 57 45 98t115 41q68 0 109 -37t56 -97l-5 -2q-44 74 -128 74q-57 0 -90 -37t-33 -86q0 -57 19 -77q66 31 105 31q32 0 50 -13t18 -34q0 -20 -12 -32.5t-36 -12.5q-9 0 -17 1t-17 3t-15.5 4
t-16 6l-14 6t-14 7.5t-12 6.5t-13.5 8l-10 6q-40 -33 -40 -86q0 -85 83 -141t230 -54q138 1 220.5 67t82.5 154q0 72 -50 111.5t-116 39.5q-49 0 -84 -28t-35 -70q0 -44 26.5 -68.5t64.5 -24.5t59 21q-23 5 -37 10t-27 17.5t-13 30.5q0 27 17 40.5t34 13.5q26 0 46 -16
t20 -49t-24.5 -56.5t-65.5 -23.5q-53 0 -91 32.5t-38 92.5q0 41 16.5 72t43.5 47t55.5 23.5t58.5 7.5q14 0 57 -2.5t54 -2.5q43 0 70.5 25.5t27.5 60.5q0 37 -24 60.5t-59 23.5q-20 0 -33.5 -10.5t-13.5 -20.5q2 -1 8.5 -3t9.5 -3.5t9 -4t9 -5l7.5 -6t7 -7t4 -8.5t1.5 -11
q0 -51 -47 -51q-24 0 -42 16t-18 49q0 31 26 52.5t69 21.5q50 0 80.5 -30.5t30.5 -81.5q0 -68 -47 -103.5t-133 -33.5q45 -16 74.5 -56.5t29.5 -105.5q0 -50 -24.5 -102t-71.5 -99t-127.5 -77t-180.5 -30z" />
    <glyph glyph-name="NUL" horiz-adv-x="0" 
 />
    <glyph glyph-name="DEL" horiz-adv-x="0" 
 />
    </font>
</defs>
</svg>
